G04*
G04 #@! TF.GenerationSoftware,Altium Limited,Altium Designer,20.1.14 (287)*
G04*
G04 Layer_Color=16711935*
%FSLAX24Y24*%
%MOIN*%
G70*
G04*
G04 #@! TF.SameCoordinates,9A1B4EAE-D6D5-4477-8753-CECB3CDB6822*
G04*
G04*
G04 #@! TF.FilePolarity,Negative*
G04*
G01*
G75*
%ADD55C,0.0659*%
%ADD56C,0.0650*%
%ADD57R,0.0650X0.0650*%
%ADD58C,0.0759*%
%ADD59O,0.0673X0.0476*%
%ADD60R,0.0650X0.0650*%
%ADD61C,0.1309*%
%ADD62C,0.0559*%
%ADD63C,0.0359*%
%ADD64C,0.1259*%
D55*
X7750Y750D02*
D03*
X8750D02*
D03*
X9750D02*
D03*
X10750D02*
D03*
X11750D02*
D03*
X12750D02*
D03*
X13750D02*
D03*
X14750D02*
D03*
X15750D02*
D03*
X16750D02*
D03*
X17750D02*
D03*
X18750D02*
D03*
X19750D02*
D03*
X20750D02*
D03*
X21750D02*
D03*
X22750D02*
D03*
X23750D02*
D03*
X24750D02*
D03*
X25750D02*
D03*
X26750D02*
D03*
X27750D02*
D03*
X28750D02*
D03*
X29750D02*
D03*
X7750Y1750D02*
D03*
X8750D02*
D03*
X9750D02*
D03*
X10750D02*
D03*
X11750D02*
D03*
X12750D02*
D03*
X13750D02*
D03*
X14750D02*
D03*
X15750D02*
D03*
X16750D02*
D03*
X17750D02*
D03*
X18750D02*
D03*
X19750D02*
D03*
X20750D02*
D03*
X21750D02*
D03*
X22750D02*
D03*
X23750D02*
D03*
X24750D02*
D03*
X25750D02*
D03*
X26750D02*
D03*
X27750D02*
D03*
X28750D02*
D03*
X29750D02*
D03*
Y20750D02*
D03*
X28750D02*
D03*
X27750D02*
D03*
X26750D02*
D03*
X25750D02*
D03*
X24750D02*
D03*
X23750D02*
D03*
X22750D02*
D03*
X21750D02*
D03*
X20750D02*
D03*
X19750D02*
D03*
X18750D02*
D03*
X17750D02*
D03*
X16750D02*
D03*
X15750D02*
D03*
X14750D02*
D03*
X13750D02*
D03*
X12750D02*
D03*
X11750D02*
D03*
X10750D02*
D03*
X9750D02*
D03*
X8750D02*
D03*
X7750D02*
D03*
X29750Y19750D02*
D03*
X28750D02*
D03*
X27750D02*
D03*
X26750D02*
D03*
X25750D02*
D03*
X24750D02*
D03*
X23750D02*
D03*
X22750D02*
D03*
X21750D02*
D03*
X20750D02*
D03*
X19750D02*
D03*
X18750D02*
D03*
X17750D02*
D03*
X16750D02*
D03*
X15750D02*
D03*
X14750D02*
D03*
X13750D02*
D03*
X12750D02*
D03*
X11750D02*
D03*
X10750D02*
D03*
X9750D02*
D03*
X8750D02*
D03*
X7750D02*
D03*
D56*
X27700Y3800D02*
D03*
X26700D02*
D03*
X25700D02*
D03*
X24700D02*
D03*
X23700D02*
D03*
X22700D02*
D03*
X21700D02*
D03*
X12250Y15150D02*
D03*
X3700Y4100D02*
D03*
Y5100D02*
D03*
X700Y4100D02*
D03*
X12250Y9150D02*
D03*
Y10150D02*
D03*
Y11150D02*
D03*
Y12150D02*
D03*
Y13150D02*
D03*
Y14150D02*
D03*
D57*
X20700Y3800D02*
D03*
X700Y5100D02*
D03*
D58*
X10250Y12150D02*
D03*
X5700Y17100D02*
D03*
X28000Y17350D02*
D03*
D59*
X32750Y16243D02*
D03*
X32750Y13400D02*
D03*
D60*
X12250Y8150D02*
D03*
D61*
X5750Y1250D02*
D03*
X31750Y2500D02*
D03*
Y19000D02*
D03*
X5750Y20250D02*
D03*
D62*
X29850Y15400D02*
D03*
X8500Y5400D02*
D03*
X9550Y6200D02*
D03*
X27750Y13350D02*
D03*
X24750Y14150D02*
D03*
X5800Y4150D02*
D03*
X23800Y15600D02*
D03*
X11150Y13800D02*
D03*
X28900Y11950D02*
D03*
X31850Y12250D02*
D03*
D63*
X13396Y3807D02*
D03*
D64*
X16750Y9650D02*
D03*
Y14650D02*
D03*
M02*
