G04*
G04 #@! TF.GenerationSoftware,Altium Limited,Altium Designer,20.1.14 (287)*
G04*
G04 Layer_Physical_Order=2*
G04 Layer_Color=16711680*
%FSLAX24Y24*%
%MOIN*%
G70*
G04*
G04 #@! TF.SameCoordinates,9A1B4EAE-D6D5-4477-8753-CECB3CDB6822*
G04*
G04*
G04 #@! TF.FilePolarity,Positive*
G04*
G01*
G75*
%ADD14C,0.0100*%
%ADD73C,0.0600*%
%ADD74C,0.0591*%
%ADD75R,0.0591X0.0591*%
%ADD76C,0.0700*%
%ADD77O,0.0633X0.0436*%
%ADD78R,0.0591X0.0591*%
%ADD79C,0.1250*%
%ADD80C,0.0500*%
%ADD81C,0.0300*%
%ADD82C,0.1200*%
G36*
X31763Y21336D02*
X31764Y21336D01*
X33836Y19264D01*
X33836Y19263D01*
X33850Y19014D01*
X33847Y19000D01*
X33847Y19000D01*
X33847Y19000D01*
X33851Y2504D01*
X33836Y2237D01*
X33792Y1977D01*
X33719Y1724D01*
X33715Y1715D01*
X32285Y285D01*
X32276Y281D01*
X32023Y208D01*
X31763Y164D01*
X31514Y150D01*
X31500Y153D01*
X31500Y153D01*
X31500Y153D01*
X2504Y149D01*
X2237Y164D01*
X1977Y208D01*
X1787Y263D01*
X263Y1787D01*
X208Y1977D01*
X164Y2237D01*
X150Y2485D01*
X153Y2500D01*
X153Y2500D01*
X153Y2500D01*
X149Y8001D01*
X193Y8050D01*
X8100D01*
X8150Y8100D01*
Y8400D01*
X8154Y8420D01*
Y8435D01*
X8157Y8450D01*
X8154Y8465D01*
Y8480D01*
X8153Y8482D01*
Y15018D01*
X8154Y15020D01*
Y15035D01*
X8157Y15050D01*
X8154Y15065D01*
Y15080D01*
X8150Y15100D01*
Y15350D01*
X7986D01*
X7963Y15366D01*
X7908Y15388D01*
X7830Y15404D01*
X7815D01*
X7800Y15407D01*
X7785Y15404D01*
X7770D01*
X7768Y15403D01*
X2965Y15399D01*
X2932Y15406D01*
X2916Y15416D01*
X2906Y15432D01*
X2902Y15448D01*
X2903Y15450D01*
X2903Y15450D01*
X2903Y15450D01*
X2899Y21285D01*
X2906Y21318D01*
X2916Y21334D01*
X2932Y21344D01*
X2948Y21348D01*
X2950Y21347D01*
X2950Y21347D01*
X31496Y21351D01*
X31763Y21336D01*
D02*
G37*
%LPC*%
G36*
X7790Y21108D02*
Y20790D01*
X8108D01*
X8101Y20844D01*
X8064Y20932D01*
X8007Y21007D01*
X7932Y21064D01*
X7844Y21101D01*
X7790Y21108D01*
D02*
G37*
G36*
X7710D02*
X7656Y21101D01*
X7568Y21064D01*
X7493Y21007D01*
X7436Y20932D01*
X7399Y20844D01*
X7392Y20790D01*
X7710D01*
Y21108D01*
D02*
G37*
G36*
X8108Y20710D02*
X7790D01*
Y20392D01*
X7844Y20399D01*
X7932Y20436D01*
X8007Y20493D01*
X8064Y20568D01*
X8101Y20656D01*
X8108Y20710D01*
D02*
G37*
G36*
X7710D02*
X7392D01*
X7399Y20656D01*
X7436Y20568D01*
X7493Y20493D01*
X7568Y20436D01*
X7656Y20399D01*
X7710Y20392D01*
Y20710D01*
D02*
G37*
G36*
X29750Y21113D02*
X29656Y21101D01*
X29568Y21064D01*
X29493Y21007D01*
X29436Y20932D01*
X29399Y20844D01*
X29387Y20750D01*
X29399Y20656D01*
X29436Y20568D01*
X29493Y20493D01*
X29568Y20436D01*
X29656Y20399D01*
X29750Y20387D01*
X29844Y20399D01*
X29932Y20436D01*
X30007Y20493D01*
X30064Y20568D01*
X30101Y20656D01*
X30113Y20750D01*
X30101Y20844D01*
X30064Y20932D01*
X30007Y21007D01*
X29932Y21064D01*
X29844Y21101D01*
X29750Y21113D01*
D02*
G37*
G36*
X28750D02*
X28656Y21101D01*
X28568Y21064D01*
X28493Y21007D01*
X28436Y20932D01*
X28399Y20844D01*
X28387Y20750D01*
X28399Y20656D01*
X28436Y20568D01*
X28493Y20493D01*
X28568Y20436D01*
X28656Y20399D01*
X28750Y20387D01*
X28844Y20399D01*
X28932Y20436D01*
X29007Y20493D01*
X29064Y20568D01*
X29101Y20656D01*
X29113Y20750D01*
X29101Y20844D01*
X29064Y20932D01*
X29007Y21007D01*
X28932Y21064D01*
X28844Y21101D01*
X28750Y21113D01*
D02*
G37*
G36*
X27750D02*
X27656Y21101D01*
X27568Y21064D01*
X27493Y21007D01*
X27436Y20932D01*
X27399Y20844D01*
X27387Y20750D01*
X27399Y20656D01*
X27436Y20568D01*
X27493Y20493D01*
X27568Y20436D01*
X27656Y20399D01*
X27750Y20387D01*
X27844Y20399D01*
X27932Y20436D01*
X28007Y20493D01*
X28064Y20568D01*
X28101Y20656D01*
X28113Y20750D01*
X28101Y20844D01*
X28064Y20932D01*
X28007Y21007D01*
X27932Y21064D01*
X27844Y21101D01*
X27750Y21113D01*
D02*
G37*
G36*
X26750D02*
X26656Y21101D01*
X26568Y21064D01*
X26493Y21007D01*
X26436Y20932D01*
X26399Y20844D01*
X26387Y20750D01*
X26399Y20656D01*
X26436Y20568D01*
X26493Y20493D01*
X26568Y20436D01*
X26656Y20399D01*
X26750Y20387D01*
X26844Y20399D01*
X26932Y20436D01*
X27007Y20493D01*
X27064Y20568D01*
X27101Y20656D01*
X27113Y20750D01*
X27101Y20844D01*
X27064Y20932D01*
X27007Y21007D01*
X26932Y21064D01*
X26844Y21101D01*
X26750Y21113D01*
D02*
G37*
G36*
X25750D02*
X25656Y21101D01*
X25568Y21064D01*
X25493Y21007D01*
X25436Y20932D01*
X25399Y20844D01*
X25387Y20750D01*
X25399Y20656D01*
X25436Y20568D01*
X25493Y20493D01*
X25568Y20436D01*
X25656Y20399D01*
X25750Y20387D01*
X25844Y20399D01*
X25932Y20436D01*
X26007Y20493D01*
X26064Y20568D01*
X26101Y20656D01*
X26113Y20750D01*
X26101Y20844D01*
X26064Y20932D01*
X26007Y21007D01*
X25932Y21064D01*
X25844Y21101D01*
X25750Y21113D01*
D02*
G37*
G36*
X24750D02*
X24656Y21101D01*
X24568Y21064D01*
X24493Y21007D01*
X24436Y20932D01*
X24399Y20844D01*
X24387Y20750D01*
X24399Y20656D01*
X24436Y20568D01*
X24493Y20493D01*
X24568Y20436D01*
X24656Y20399D01*
X24750Y20387D01*
X24844Y20399D01*
X24932Y20436D01*
X25007Y20493D01*
X25064Y20568D01*
X25101Y20656D01*
X25113Y20750D01*
X25101Y20844D01*
X25064Y20932D01*
X25007Y21007D01*
X24932Y21064D01*
X24844Y21101D01*
X24750Y21113D01*
D02*
G37*
G36*
X23750D02*
X23656Y21101D01*
X23568Y21064D01*
X23493Y21007D01*
X23436Y20932D01*
X23399Y20844D01*
X23387Y20750D01*
X23399Y20656D01*
X23436Y20568D01*
X23493Y20493D01*
X23568Y20436D01*
X23656Y20399D01*
X23750Y20387D01*
X23844Y20399D01*
X23932Y20436D01*
X24007Y20493D01*
X24064Y20568D01*
X24101Y20656D01*
X24113Y20750D01*
X24101Y20844D01*
X24064Y20932D01*
X24007Y21007D01*
X23932Y21064D01*
X23844Y21101D01*
X23750Y21113D01*
D02*
G37*
G36*
X22750D02*
X22656Y21101D01*
X22568Y21064D01*
X22493Y21007D01*
X22436Y20932D01*
X22399Y20844D01*
X22387Y20750D01*
X22399Y20656D01*
X22436Y20568D01*
X22493Y20493D01*
X22568Y20436D01*
X22656Y20399D01*
X22750Y20387D01*
X22844Y20399D01*
X22932Y20436D01*
X23007Y20493D01*
X23064Y20568D01*
X23101Y20656D01*
X23113Y20750D01*
X23101Y20844D01*
X23064Y20932D01*
X23007Y21007D01*
X22932Y21064D01*
X22844Y21101D01*
X22750Y21113D01*
D02*
G37*
G36*
X21750D02*
X21656Y21101D01*
X21568Y21064D01*
X21493Y21007D01*
X21436Y20932D01*
X21399Y20844D01*
X21387Y20750D01*
X21399Y20656D01*
X21436Y20568D01*
X21493Y20493D01*
X21568Y20436D01*
X21656Y20399D01*
X21750Y20387D01*
X21844Y20399D01*
X21932Y20436D01*
X22007Y20493D01*
X22064Y20568D01*
X22101Y20656D01*
X22113Y20750D01*
X22101Y20844D01*
X22064Y20932D01*
X22007Y21007D01*
X21932Y21064D01*
X21844Y21101D01*
X21750Y21113D01*
D02*
G37*
G36*
X20750D02*
X20656Y21101D01*
X20568Y21064D01*
X20493Y21007D01*
X20436Y20932D01*
X20399Y20844D01*
X20387Y20750D01*
X20399Y20656D01*
X20436Y20568D01*
X20493Y20493D01*
X20568Y20436D01*
X20656Y20399D01*
X20750Y20387D01*
X20844Y20399D01*
X20932Y20436D01*
X21007Y20493D01*
X21064Y20568D01*
X21101Y20656D01*
X21113Y20750D01*
X21101Y20844D01*
X21064Y20932D01*
X21007Y21007D01*
X20932Y21064D01*
X20844Y21101D01*
X20750Y21113D01*
D02*
G37*
G36*
X19750D02*
X19656Y21101D01*
X19568Y21064D01*
X19493Y21007D01*
X19436Y20932D01*
X19399Y20844D01*
X19387Y20750D01*
X19399Y20656D01*
X19436Y20568D01*
X19493Y20493D01*
X19568Y20436D01*
X19656Y20399D01*
X19750Y20387D01*
X19844Y20399D01*
X19932Y20436D01*
X20007Y20493D01*
X20064Y20568D01*
X20101Y20656D01*
X20113Y20750D01*
X20101Y20844D01*
X20064Y20932D01*
X20007Y21007D01*
X19932Y21064D01*
X19844Y21101D01*
X19750Y21113D01*
D02*
G37*
G36*
X18750D02*
X18656Y21101D01*
X18568Y21064D01*
X18493Y21007D01*
X18436Y20932D01*
X18399Y20844D01*
X18387Y20750D01*
X18399Y20656D01*
X18436Y20568D01*
X18493Y20493D01*
X18568Y20436D01*
X18656Y20399D01*
X18750Y20387D01*
X18844Y20399D01*
X18932Y20436D01*
X19007Y20493D01*
X19064Y20568D01*
X19101Y20656D01*
X19113Y20750D01*
X19101Y20844D01*
X19064Y20932D01*
X19007Y21007D01*
X18932Y21064D01*
X18844Y21101D01*
X18750Y21113D01*
D02*
G37*
G36*
X17750D02*
X17656Y21101D01*
X17568Y21064D01*
X17493Y21007D01*
X17436Y20932D01*
X17399Y20844D01*
X17387Y20750D01*
X17399Y20656D01*
X17436Y20568D01*
X17493Y20493D01*
X17568Y20436D01*
X17656Y20399D01*
X17750Y20387D01*
X17844Y20399D01*
X17932Y20436D01*
X18007Y20493D01*
X18064Y20568D01*
X18101Y20656D01*
X18113Y20750D01*
X18101Y20844D01*
X18064Y20932D01*
X18007Y21007D01*
X17932Y21064D01*
X17844Y21101D01*
X17750Y21113D01*
D02*
G37*
G36*
X16750D02*
X16656Y21101D01*
X16568Y21064D01*
X16493Y21007D01*
X16436Y20932D01*
X16399Y20844D01*
X16387Y20750D01*
X16399Y20656D01*
X16436Y20568D01*
X16493Y20493D01*
X16568Y20436D01*
X16656Y20399D01*
X16750Y20387D01*
X16844Y20399D01*
X16932Y20436D01*
X17007Y20493D01*
X17064Y20568D01*
X17101Y20656D01*
X17113Y20750D01*
X17101Y20844D01*
X17064Y20932D01*
X17007Y21007D01*
X16932Y21064D01*
X16844Y21101D01*
X16750Y21113D01*
D02*
G37*
G36*
X15750D02*
X15656Y21101D01*
X15568Y21064D01*
X15493Y21007D01*
X15436Y20932D01*
X15399Y20844D01*
X15387Y20750D01*
X15399Y20656D01*
X15436Y20568D01*
X15493Y20493D01*
X15568Y20436D01*
X15656Y20399D01*
X15750Y20387D01*
X15844Y20399D01*
X15932Y20436D01*
X16007Y20493D01*
X16064Y20568D01*
X16101Y20656D01*
X16113Y20750D01*
X16101Y20844D01*
X16064Y20932D01*
X16007Y21007D01*
X15932Y21064D01*
X15844Y21101D01*
X15750Y21113D01*
D02*
G37*
G36*
X14750D02*
X14656Y21101D01*
X14568Y21064D01*
X14493Y21007D01*
X14436Y20932D01*
X14399Y20844D01*
X14387Y20750D01*
X14399Y20656D01*
X14436Y20568D01*
X14493Y20493D01*
X14568Y20436D01*
X14656Y20399D01*
X14750Y20387D01*
X14844Y20399D01*
X14932Y20436D01*
X15007Y20493D01*
X15064Y20568D01*
X15101Y20656D01*
X15113Y20750D01*
X15101Y20844D01*
X15064Y20932D01*
X15007Y21007D01*
X14932Y21064D01*
X14844Y21101D01*
X14750Y21113D01*
D02*
G37*
G36*
X13750D02*
X13656Y21101D01*
X13568Y21064D01*
X13493Y21007D01*
X13436Y20932D01*
X13399Y20844D01*
X13387Y20750D01*
X13399Y20656D01*
X13436Y20568D01*
X13493Y20493D01*
X13568Y20436D01*
X13656Y20399D01*
X13750Y20387D01*
X13844Y20399D01*
X13932Y20436D01*
X14007Y20493D01*
X14064Y20568D01*
X14101Y20656D01*
X14113Y20750D01*
X14101Y20844D01*
X14064Y20932D01*
X14007Y21007D01*
X13932Y21064D01*
X13844Y21101D01*
X13750Y21113D01*
D02*
G37*
G36*
X12750D02*
X12656Y21101D01*
X12568Y21064D01*
X12493Y21007D01*
X12436Y20932D01*
X12399Y20844D01*
X12387Y20750D01*
X12399Y20656D01*
X12436Y20568D01*
X12493Y20493D01*
X12568Y20436D01*
X12656Y20399D01*
X12750Y20387D01*
X12844Y20399D01*
X12932Y20436D01*
X13007Y20493D01*
X13064Y20568D01*
X13101Y20656D01*
X13113Y20750D01*
X13101Y20844D01*
X13064Y20932D01*
X13007Y21007D01*
X12932Y21064D01*
X12844Y21101D01*
X12750Y21113D01*
D02*
G37*
G36*
X11750D02*
X11656Y21101D01*
X11568Y21064D01*
X11493Y21007D01*
X11436Y20932D01*
X11399Y20844D01*
X11387Y20750D01*
X11399Y20656D01*
X11436Y20568D01*
X11493Y20493D01*
X11568Y20436D01*
X11656Y20399D01*
X11750Y20387D01*
X11844Y20399D01*
X11932Y20436D01*
X12007Y20493D01*
X12064Y20568D01*
X12101Y20656D01*
X12113Y20750D01*
X12101Y20844D01*
X12064Y20932D01*
X12007Y21007D01*
X11932Y21064D01*
X11844Y21101D01*
X11750Y21113D01*
D02*
G37*
G36*
X10750D02*
X10656Y21101D01*
X10568Y21064D01*
X10493Y21007D01*
X10436Y20932D01*
X10399Y20844D01*
X10387Y20750D01*
X10399Y20656D01*
X10436Y20568D01*
X10493Y20493D01*
X10568Y20436D01*
X10656Y20399D01*
X10750Y20387D01*
X10844Y20399D01*
X10932Y20436D01*
X11007Y20493D01*
X11064Y20568D01*
X11101Y20656D01*
X11113Y20750D01*
X11101Y20844D01*
X11064Y20932D01*
X11007Y21007D01*
X10932Y21064D01*
X10844Y21101D01*
X10750Y21113D01*
D02*
G37*
G36*
X9750D02*
X9656Y21101D01*
X9568Y21064D01*
X9493Y21007D01*
X9436Y20932D01*
X9399Y20844D01*
X9387Y20750D01*
X9399Y20656D01*
X9436Y20568D01*
X9493Y20493D01*
X9568Y20436D01*
X9656Y20399D01*
X9750Y20387D01*
X9844Y20399D01*
X9932Y20436D01*
X10007Y20493D01*
X10064Y20568D01*
X10101Y20656D01*
X10113Y20750D01*
X10101Y20844D01*
X10064Y20932D01*
X10007Y21007D01*
X9932Y21064D01*
X9844Y21101D01*
X9750Y21113D01*
D02*
G37*
G36*
X8750D02*
X8656Y21101D01*
X8568Y21064D01*
X8493Y21007D01*
X8436Y20932D01*
X8399Y20844D01*
X8387Y20750D01*
X8399Y20656D01*
X8436Y20568D01*
X8493Y20493D01*
X8568Y20436D01*
X8656Y20399D01*
X8750Y20387D01*
X8844Y20399D01*
X8932Y20436D01*
X9007Y20493D01*
X9064Y20568D01*
X9101Y20656D01*
X9113Y20750D01*
X9101Y20844D01*
X9064Y20932D01*
X9007Y21007D01*
X8932Y21064D01*
X8844Y21101D01*
X8750Y21113D01*
D02*
G37*
G36*
X7790Y20108D02*
Y19790D01*
X8108D01*
X8101Y19844D01*
X8064Y19932D01*
X8007Y20007D01*
X7932Y20064D01*
X7844Y20101D01*
X7790Y20108D01*
D02*
G37*
G36*
X7710D02*
X7656Y20101D01*
X7568Y20064D01*
X7493Y20007D01*
X7436Y19932D01*
X7399Y19844D01*
X7392Y19790D01*
X7710D01*
Y20108D01*
D02*
G37*
G36*
X5750Y20938D02*
X5616Y20925D01*
X5487Y20886D01*
X5368Y20822D01*
X5263Y20737D01*
X5178Y20632D01*
X5114Y20513D01*
X5075Y20384D01*
X5062Y20250D01*
X5075Y20116D01*
X5114Y19987D01*
X5178Y19868D01*
X5263Y19763D01*
X5368Y19678D01*
X5487Y19614D01*
X5616Y19575D01*
X5750Y19562D01*
X5884Y19575D01*
X6013Y19614D01*
X6132Y19678D01*
X6237Y19763D01*
X6322Y19868D01*
X6386Y19987D01*
X6425Y20116D01*
X6438Y20250D01*
X6425Y20384D01*
X6386Y20513D01*
X6322Y20632D01*
X6237Y20737D01*
X6132Y20822D01*
X6013Y20886D01*
X5884Y20925D01*
X5750Y20938D01*
D02*
G37*
G36*
X8108Y19710D02*
X7790D01*
Y19392D01*
X7844Y19399D01*
X7932Y19436D01*
X8007Y19493D01*
X8064Y19568D01*
X8101Y19656D01*
X8108Y19710D01*
D02*
G37*
G36*
X7710D02*
X7392D01*
X7399Y19656D01*
X7436Y19568D01*
X7493Y19493D01*
X7568Y19436D01*
X7656Y19399D01*
X7710Y19392D01*
Y19710D01*
D02*
G37*
G36*
X29750Y20113D02*
X29656Y20101D01*
X29568Y20064D01*
X29493Y20007D01*
X29436Y19932D01*
X29399Y19844D01*
X29387Y19750D01*
X29399Y19656D01*
X29436Y19568D01*
X29493Y19493D01*
X29568Y19436D01*
X29656Y19399D01*
X29750Y19387D01*
X29844Y19399D01*
X29932Y19436D01*
X30007Y19493D01*
X30064Y19568D01*
X30101Y19656D01*
X30113Y19750D01*
X30101Y19844D01*
X30064Y19932D01*
X30007Y20007D01*
X29932Y20064D01*
X29844Y20101D01*
X29750Y20113D01*
D02*
G37*
G36*
X28750D02*
X28656Y20101D01*
X28568Y20064D01*
X28493Y20007D01*
X28436Y19932D01*
X28399Y19844D01*
X28387Y19750D01*
X28399Y19656D01*
X28436Y19568D01*
X28493Y19493D01*
X28568Y19436D01*
X28656Y19399D01*
X28750Y19387D01*
X28844Y19399D01*
X28932Y19436D01*
X29007Y19493D01*
X29064Y19568D01*
X29101Y19656D01*
X29113Y19750D01*
X29101Y19844D01*
X29064Y19932D01*
X29007Y20007D01*
X28932Y20064D01*
X28844Y20101D01*
X28750Y20113D01*
D02*
G37*
G36*
X27750D02*
X27656Y20101D01*
X27568Y20064D01*
X27493Y20007D01*
X27436Y19932D01*
X27399Y19844D01*
X27387Y19750D01*
X27399Y19656D01*
X27436Y19568D01*
X27493Y19493D01*
X27568Y19436D01*
X27656Y19399D01*
X27750Y19387D01*
X27844Y19399D01*
X27932Y19436D01*
X28007Y19493D01*
X28064Y19568D01*
X28101Y19656D01*
X28113Y19750D01*
X28101Y19844D01*
X28064Y19932D01*
X28007Y20007D01*
X27932Y20064D01*
X27844Y20101D01*
X27750Y20113D01*
D02*
G37*
G36*
X26750D02*
X26656Y20101D01*
X26568Y20064D01*
X26493Y20007D01*
X26436Y19932D01*
X26399Y19844D01*
X26387Y19750D01*
X26399Y19656D01*
X26436Y19568D01*
X26493Y19493D01*
X26568Y19436D01*
X26656Y19399D01*
X26750Y19387D01*
X26844Y19399D01*
X26932Y19436D01*
X27007Y19493D01*
X27064Y19568D01*
X27101Y19656D01*
X27113Y19750D01*
X27101Y19844D01*
X27064Y19932D01*
X27007Y20007D01*
X26932Y20064D01*
X26844Y20101D01*
X26750Y20113D01*
D02*
G37*
G36*
X25750D02*
X25656Y20101D01*
X25568Y20064D01*
X25493Y20007D01*
X25436Y19932D01*
X25399Y19844D01*
X25387Y19750D01*
X25399Y19656D01*
X25436Y19568D01*
X25493Y19493D01*
X25568Y19436D01*
X25656Y19399D01*
X25750Y19387D01*
X25844Y19399D01*
X25932Y19436D01*
X26007Y19493D01*
X26064Y19568D01*
X26101Y19656D01*
X26113Y19750D01*
X26101Y19844D01*
X26064Y19932D01*
X26007Y20007D01*
X25932Y20064D01*
X25844Y20101D01*
X25750Y20113D01*
D02*
G37*
G36*
X24750D02*
X24656Y20101D01*
X24568Y20064D01*
X24493Y20007D01*
X24436Y19932D01*
X24399Y19844D01*
X24387Y19750D01*
X24399Y19656D01*
X24436Y19568D01*
X24493Y19493D01*
X24568Y19436D01*
X24656Y19399D01*
X24750Y19387D01*
X24844Y19399D01*
X24932Y19436D01*
X25007Y19493D01*
X25064Y19568D01*
X25101Y19656D01*
X25113Y19750D01*
X25101Y19844D01*
X25064Y19932D01*
X25007Y20007D01*
X24932Y20064D01*
X24844Y20101D01*
X24750Y20113D01*
D02*
G37*
G36*
X23750D02*
X23656Y20101D01*
X23568Y20064D01*
X23493Y20007D01*
X23436Y19932D01*
X23399Y19844D01*
X23387Y19750D01*
X23399Y19656D01*
X23436Y19568D01*
X23493Y19493D01*
X23568Y19436D01*
X23656Y19399D01*
X23750Y19387D01*
X23844Y19399D01*
X23932Y19436D01*
X24007Y19493D01*
X24064Y19568D01*
X24101Y19656D01*
X24113Y19750D01*
X24101Y19844D01*
X24064Y19932D01*
X24007Y20007D01*
X23932Y20064D01*
X23844Y20101D01*
X23750Y20113D01*
D02*
G37*
G36*
X22750D02*
X22656Y20101D01*
X22568Y20064D01*
X22493Y20007D01*
X22436Y19932D01*
X22399Y19844D01*
X22387Y19750D01*
X22399Y19656D01*
X22436Y19568D01*
X22493Y19493D01*
X22568Y19436D01*
X22656Y19399D01*
X22750Y19387D01*
X22844Y19399D01*
X22932Y19436D01*
X23007Y19493D01*
X23064Y19568D01*
X23101Y19656D01*
X23113Y19750D01*
X23101Y19844D01*
X23064Y19932D01*
X23007Y20007D01*
X22932Y20064D01*
X22844Y20101D01*
X22750Y20113D01*
D02*
G37*
G36*
X21750D02*
X21656Y20101D01*
X21568Y20064D01*
X21493Y20007D01*
X21436Y19932D01*
X21399Y19844D01*
X21387Y19750D01*
X21399Y19656D01*
X21436Y19568D01*
X21493Y19493D01*
X21568Y19436D01*
X21656Y19399D01*
X21750Y19387D01*
X21844Y19399D01*
X21932Y19436D01*
X22007Y19493D01*
X22064Y19568D01*
X22101Y19656D01*
X22113Y19750D01*
X22101Y19844D01*
X22064Y19932D01*
X22007Y20007D01*
X21932Y20064D01*
X21844Y20101D01*
X21750Y20113D01*
D02*
G37*
G36*
X20750D02*
X20656Y20101D01*
X20568Y20064D01*
X20493Y20007D01*
X20436Y19932D01*
X20399Y19844D01*
X20387Y19750D01*
X20399Y19656D01*
X20436Y19568D01*
X20493Y19493D01*
X20568Y19436D01*
X20656Y19399D01*
X20750Y19387D01*
X20844Y19399D01*
X20932Y19436D01*
X21007Y19493D01*
X21064Y19568D01*
X21101Y19656D01*
X21113Y19750D01*
X21101Y19844D01*
X21064Y19932D01*
X21007Y20007D01*
X20932Y20064D01*
X20844Y20101D01*
X20750Y20113D01*
D02*
G37*
G36*
X19750D02*
X19656Y20101D01*
X19568Y20064D01*
X19493Y20007D01*
X19436Y19932D01*
X19399Y19844D01*
X19387Y19750D01*
X19399Y19656D01*
X19436Y19568D01*
X19493Y19493D01*
X19568Y19436D01*
X19656Y19399D01*
X19750Y19387D01*
X19844Y19399D01*
X19932Y19436D01*
X20007Y19493D01*
X20064Y19568D01*
X20101Y19656D01*
X20113Y19750D01*
X20101Y19844D01*
X20064Y19932D01*
X20007Y20007D01*
X19932Y20064D01*
X19844Y20101D01*
X19750Y20113D01*
D02*
G37*
G36*
X18750D02*
X18656Y20101D01*
X18568Y20064D01*
X18493Y20007D01*
X18436Y19932D01*
X18399Y19844D01*
X18387Y19750D01*
X18399Y19656D01*
X18436Y19568D01*
X18493Y19493D01*
X18568Y19436D01*
X18656Y19399D01*
X18750Y19387D01*
X18844Y19399D01*
X18932Y19436D01*
X19007Y19493D01*
X19064Y19568D01*
X19101Y19656D01*
X19113Y19750D01*
X19101Y19844D01*
X19064Y19932D01*
X19007Y20007D01*
X18932Y20064D01*
X18844Y20101D01*
X18750Y20113D01*
D02*
G37*
G36*
X17750D02*
X17656Y20101D01*
X17568Y20064D01*
X17493Y20007D01*
X17436Y19932D01*
X17399Y19844D01*
X17387Y19750D01*
X17399Y19656D01*
X17436Y19568D01*
X17493Y19493D01*
X17568Y19436D01*
X17656Y19399D01*
X17750Y19387D01*
X17844Y19399D01*
X17932Y19436D01*
X18007Y19493D01*
X18064Y19568D01*
X18101Y19656D01*
X18113Y19750D01*
X18101Y19844D01*
X18064Y19932D01*
X18007Y20007D01*
X17932Y20064D01*
X17844Y20101D01*
X17750Y20113D01*
D02*
G37*
G36*
X16750D02*
X16656Y20101D01*
X16568Y20064D01*
X16493Y20007D01*
X16436Y19932D01*
X16399Y19844D01*
X16387Y19750D01*
X16399Y19656D01*
X16436Y19568D01*
X16493Y19493D01*
X16568Y19436D01*
X16656Y19399D01*
X16750Y19387D01*
X16844Y19399D01*
X16932Y19436D01*
X17007Y19493D01*
X17064Y19568D01*
X17101Y19656D01*
X17113Y19750D01*
X17101Y19844D01*
X17064Y19932D01*
X17007Y20007D01*
X16932Y20064D01*
X16844Y20101D01*
X16750Y20113D01*
D02*
G37*
G36*
X15750D02*
X15656Y20101D01*
X15568Y20064D01*
X15493Y20007D01*
X15436Y19932D01*
X15399Y19844D01*
X15387Y19750D01*
X15399Y19656D01*
X15436Y19568D01*
X15493Y19493D01*
X15568Y19436D01*
X15656Y19399D01*
X15750Y19387D01*
X15844Y19399D01*
X15932Y19436D01*
X16007Y19493D01*
X16064Y19568D01*
X16101Y19656D01*
X16113Y19750D01*
X16101Y19844D01*
X16064Y19932D01*
X16007Y20007D01*
X15932Y20064D01*
X15844Y20101D01*
X15750Y20113D01*
D02*
G37*
G36*
X14750D02*
X14656Y20101D01*
X14568Y20064D01*
X14493Y20007D01*
X14436Y19932D01*
X14399Y19844D01*
X14387Y19750D01*
X14399Y19656D01*
X14436Y19568D01*
X14493Y19493D01*
X14568Y19436D01*
X14656Y19399D01*
X14750Y19387D01*
X14844Y19399D01*
X14932Y19436D01*
X15007Y19493D01*
X15064Y19568D01*
X15101Y19656D01*
X15113Y19750D01*
X15101Y19844D01*
X15064Y19932D01*
X15007Y20007D01*
X14932Y20064D01*
X14844Y20101D01*
X14750Y20113D01*
D02*
G37*
G36*
X13750D02*
X13656Y20101D01*
X13568Y20064D01*
X13493Y20007D01*
X13436Y19932D01*
X13399Y19844D01*
X13387Y19750D01*
X13399Y19656D01*
X13436Y19568D01*
X13493Y19493D01*
X13568Y19436D01*
X13656Y19399D01*
X13750Y19387D01*
X13844Y19399D01*
X13932Y19436D01*
X14007Y19493D01*
X14064Y19568D01*
X14101Y19656D01*
X14113Y19750D01*
X14101Y19844D01*
X14064Y19932D01*
X14007Y20007D01*
X13932Y20064D01*
X13844Y20101D01*
X13750Y20113D01*
D02*
G37*
G36*
X12750D02*
X12656Y20101D01*
X12568Y20064D01*
X12493Y20007D01*
X12436Y19932D01*
X12399Y19844D01*
X12387Y19750D01*
X12399Y19656D01*
X12436Y19568D01*
X12493Y19493D01*
X12568Y19436D01*
X12656Y19399D01*
X12750Y19387D01*
X12844Y19399D01*
X12932Y19436D01*
X13007Y19493D01*
X13064Y19568D01*
X13101Y19656D01*
X13113Y19750D01*
X13101Y19844D01*
X13064Y19932D01*
X13007Y20007D01*
X12932Y20064D01*
X12844Y20101D01*
X12750Y20113D01*
D02*
G37*
G36*
X11750D02*
X11656Y20101D01*
X11568Y20064D01*
X11493Y20007D01*
X11436Y19932D01*
X11399Y19844D01*
X11387Y19750D01*
X11399Y19656D01*
X11436Y19568D01*
X11493Y19493D01*
X11568Y19436D01*
X11656Y19399D01*
X11750Y19387D01*
X11844Y19399D01*
X11932Y19436D01*
X12007Y19493D01*
X12064Y19568D01*
X12101Y19656D01*
X12113Y19750D01*
X12101Y19844D01*
X12064Y19932D01*
X12007Y20007D01*
X11932Y20064D01*
X11844Y20101D01*
X11750Y20113D01*
D02*
G37*
G36*
X10750D02*
X10656Y20101D01*
X10568Y20064D01*
X10493Y20007D01*
X10436Y19932D01*
X10399Y19844D01*
X10387Y19750D01*
X10399Y19656D01*
X10436Y19568D01*
X10493Y19493D01*
X10568Y19436D01*
X10656Y19399D01*
X10750Y19387D01*
X10844Y19399D01*
X10932Y19436D01*
X11007Y19493D01*
X11064Y19568D01*
X11101Y19656D01*
X11113Y19750D01*
X11101Y19844D01*
X11064Y19932D01*
X11007Y20007D01*
X10932Y20064D01*
X10844Y20101D01*
X10750Y20113D01*
D02*
G37*
G36*
X9750D02*
X9656Y20101D01*
X9568Y20064D01*
X9493Y20007D01*
X9436Y19932D01*
X9399Y19844D01*
X9387Y19750D01*
X9399Y19656D01*
X9436Y19568D01*
X9493Y19493D01*
X9568Y19436D01*
X9656Y19399D01*
X9750Y19387D01*
X9844Y19399D01*
X9932Y19436D01*
X10007Y19493D01*
X10064Y19568D01*
X10101Y19656D01*
X10113Y19750D01*
X10101Y19844D01*
X10064Y19932D01*
X10007Y20007D01*
X9932Y20064D01*
X9844Y20101D01*
X9750Y20113D01*
D02*
G37*
G36*
X8750D02*
X8656Y20101D01*
X8568Y20064D01*
X8493Y20007D01*
X8436Y19932D01*
X8399Y19844D01*
X8387Y19750D01*
X8399Y19656D01*
X8436Y19568D01*
X8493Y19493D01*
X8568Y19436D01*
X8656Y19399D01*
X8750Y19387D01*
X8844Y19399D01*
X8932Y19436D01*
X9007Y19493D01*
X9064Y19568D01*
X9101Y19656D01*
X9113Y19750D01*
X9101Y19844D01*
X9064Y19932D01*
X9007Y20007D01*
X8932Y20064D01*
X8844Y20101D01*
X8750Y20113D01*
D02*
G37*
G36*
X31750Y19688D02*
X31616Y19675D01*
X31487Y19636D01*
X31368Y19572D01*
X31263Y19487D01*
X31178Y19382D01*
X31114Y19263D01*
X31075Y19134D01*
X31062Y19000D01*
X31075Y18866D01*
X31114Y18737D01*
X31178Y18618D01*
X31263Y18513D01*
X31368Y18428D01*
X31487Y18364D01*
X31616Y18325D01*
X31750Y18312D01*
X31884Y18325D01*
X32013Y18364D01*
X32132Y18428D01*
X32237Y18513D01*
X32322Y18618D01*
X32386Y18737D01*
X32425Y18866D01*
X32438Y19000D01*
X32425Y19134D01*
X32386Y19263D01*
X32322Y19382D01*
X32237Y19487D01*
X32132Y19572D01*
X32013Y19636D01*
X31884Y19675D01*
X31750Y19688D01*
D02*
G37*
G36*
X5740Y17508D02*
Y17140D01*
X6108D01*
X6099Y17207D01*
X6058Y17307D01*
X5992Y17392D01*
X5907Y17458D01*
X5807Y17499D01*
X5740Y17508D01*
D02*
G37*
G36*
X5660D02*
X5593Y17499D01*
X5493Y17458D01*
X5408Y17392D01*
X5342Y17307D01*
X5301Y17207D01*
X5292Y17140D01*
X5660D01*
Y17508D01*
D02*
G37*
G36*
X28000Y17764D02*
X27893Y17749D01*
X27793Y17708D01*
X27708Y17642D01*
X27642Y17557D01*
X27601Y17457D01*
X27586Y17350D01*
X27601Y17243D01*
X27642Y17143D01*
X27708Y17058D01*
X27793Y16992D01*
X27893Y16951D01*
X28000Y16936D01*
X28107Y16951D01*
X28207Y16992D01*
X28292Y17058D01*
X28358Y17143D01*
X28399Y17243D01*
X28414Y17350D01*
X28399Y17457D01*
X28358Y17557D01*
X28292Y17642D01*
X28207Y17708D01*
X28107Y17749D01*
X28000Y17764D01*
D02*
G37*
G36*
X6108Y17060D02*
X5740D01*
Y16692D01*
X5807Y16701D01*
X5907Y16742D01*
X5992Y16808D01*
X6058Y16893D01*
X6099Y16993D01*
X6108Y17060D01*
D02*
G37*
G36*
X5660D02*
X5292D01*
X5301Y16993D01*
X5342Y16893D01*
X5408Y16808D01*
X5493Y16742D01*
X5593Y16701D01*
X5660Y16692D01*
Y17060D01*
D02*
G37*
G36*
X32848Y16523D02*
X32652D01*
X32579Y16513D01*
X32511Y16485D01*
X32453Y16441D01*
X32409Y16383D01*
X32381Y16315D01*
X32371Y16243D01*
X32381Y16170D01*
X32409Y16102D01*
X32453Y16044D01*
X32511Y16000D01*
X32579Y15972D01*
X32652Y15962D01*
X32848D01*
X32921Y15972D01*
X32989Y16000D01*
X33047Y16044D01*
X33091Y16102D01*
X33119Y16170D01*
X33129Y16243D01*
X33119Y16315D01*
X33091Y16383D01*
X33047Y16441D01*
X32989Y16485D01*
X32921Y16513D01*
X32848Y16523D01*
D02*
G37*
G36*
X23840Y15907D02*
Y15640D01*
X24107D01*
X24102Y15681D01*
X24071Y15756D01*
X24021Y15821D01*
X23956Y15871D01*
X23881Y15902D01*
X23840Y15907D01*
D02*
G37*
G36*
X23760D02*
X23719Y15902D01*
X23644Y15871D01*
X23579Y15821D01*
X23529Y15756D01*
X23498Y15681D01*
X23493Y15640D01*
X23760D01*
Y15907D01*
D02*
G37*
G36*
X29890Y15707D02*
Y15440D01*
X30157D01*
X30152Y15481D01*
X30121Y15556D01*
X30071Y15621D01*
X30006Y15671D01*
X29931Y15702D01*
X29890Y15707D01*
D02*
G37*
G36*
X29810D02*
X29769Y15702D01*
X29694Y15671D01*
X29629Y15621D01*
X29579Y15556D01*
X29548Y15481D01*
X29543Y15440D01*
X29810D01*
Y15707D01*
D02*
G37*
G36*
X24107Y15560D02*
X23840D01*
Y15293D01*
X23881Y15298D01*
X23956Y15329D01*
X24021Y15379D01*
X24071Y15444D01*
X24102Y15519D01*
X24107Y15560D01*
D02*
G37*
G36*
X23760D02*
X23493D01*
X23498Y15519D01*
X23529Y15444D01*
X23579Y15379D01*
X23644Y15329D01*
X23719Y15298D01*
X23760Y15293D01*
Y15560D01*
D02*
G37*
G36*
X30157Y15360D02*
X29890D01*
Y15093D01*
X29931Y15098D01*
X30006Y15129D01*
X30071Y15179D01*
X30121Y15244D01*
X30152Y15319D01*
X30157Y15360D01*
D02*
G37*
G36*
X29810D02*
X29543D01*
X29548Y15319D01*
X29579Y15244D01*
X29629Y15179D01*
X29694Y15129D01*
X29769Y15098D01*
X29810Y15093D01*
Y15360D01*
D02*
G37*
G36*
X12250Y15508D02*
X12157Y15496D01*
X12071Y15460D01*
X11997Y15403D01*
X11940Y15329D01*
X11904Y15243D01*
X11892Y15150D01*
X11904Y15057D01*
X11940Y14971D01*
X11997Y14897D01*
X12071Y14840D01*
X12157Y14804D01*
X12250Y14792D01*
X12343Y14804D01*
X12429Y14840D01*
X12503Y14897D01*
X12560Y14971D01*
X12596Y15057D01*
X12608Y15150D01*
X12596Y15243D01*
X12560Y15329D01*
X12503Y15403D01*
X12429Y15460D01*
X12343Y15496D01*
X12250Y15508D01*
D02*
G37*
G36*
X24790Y14457D02*
Y14190D01*
X25057D01*
X25052Y14231D01*
X25021Y14306D01*
X24971Y14371D01*
X24906Y14421D01*
X24831Y14452D01*
X24790Y14457D01*
D02*
G37*
G36*
X24710D02*
X24669Y14452D01*
X24594Y14421D01*
X24529Y14371D01*
X24479Y14306D01*
X24448Y14231D01*
X24443Y14190D01*
X24710D01*
Y14457D01*
D02*
G37*
G36*
X16750Y15313D02*
X16621Y15300D01*
X16496Y15263D01*
X16382Y15201D01*
X16281Y15119D01*
X16199Y15018D01*
X16137Y14904D01*
X16100Y14779D01*
X16087Y14650D01*
X16100Y14521D01*
X16137Y14396D01*
X16199Y14282D01*
X16281Y14181D01*
X16382Y14099D01*
X16496Y14037D01*
X16621Y14000D01*
X16750Y13987D01*
X16879Y14000D01*
X17004Y14037D01*
X17118Y14099D01*
X17219Y14181D01*
X17301Y14282D01*
X17363Y14396D01*
X17400Y14521D01*
X17413Y14650D01*
X17400Y14779D01*
X17363Y14904D01*
X17301Y15018D01*
X17219Y15119D01*
X17118Y15201D01*
X17004Y15263D01*
X16879Y15300D01*
X16750Y15313D01*
D02*
G37*
G36*
X25057Y14110D02*
X24790D01*
Y13843D01*
X24831Y13848D01*
X24906Y13879D01*
X24971Y13929D01*
X25021Y13994D01*
X25052Y14069D01*
X25057Y14110D01*
D02*
G37*
G36*
X24710D02*
X24443D01*
X24448Y14069D01*
X24479Y13994D01*
X24529Y13929D01*
X24594Y13879D01*
X24669Y13848D01*
X24710Y13843D01*
Y14110D01*
D02*
G37*
G36*
X11190Y14107D02*
Y13840D01*
X11457D01*
X11452Y13881D01*
X11421Y13956D01*
X11371Y14021D01*
X11306Y14071D01*
X11231Y14102D01*
X11190Y14107D01*
D02*
G37*
G36*
X11110D02*
X11069Y14102D01*
X10994Y14071D01*
X10929Y14021D01*
X10879Y13956D01*
X10848Y13881D01*
X10843Y13840D01*
X11110D01*
Y14107D01*
D02*
G37*
G36*
X12250Y14508D02*
X12157Y14496D01*
X12071Y14460D01*
X11997Y14403D01*
X11940Y14329D01*
X11904Y14243D01*
X11892Y14150D01*
X11904Y14057D01*
X11940Y13971D01*
X11997Y13897D01*
X12071Y13840D01*
X12157Y13804D01*
X12250Y13792D01*
X12343Y13804D01*
X12429Y13840D01*
X12503Y13897D01*
X12560Y13971D01*
X12596Y14057D01*
X12608Y14150D01*
X12596Y14243D01*
X12560Y14329D01*
X12503Y14403D01*
X12429Y14460D01*
X12343Y14496D01*
X12250Y14508D01*
D02*
G37*
G36*
X11457Y13760D02*
X11190D01*
Y13493D01*
X11231Y13498D01*
X11306Y13529D01*
X11371Y13579D01*
X11421Y13644D01*
X11452Y13719D01*
X11457Y13760D01*
D02*
G37*
G36*
X11110D02*
X10843D01*
X10848Y13719D01*
X10879Y13644D01*
X10929Y13579D01*
X10994Y13529D01*
X11069Y13498D01*
X11110Y13493D01*
Y13760D01*
D02*
G37*
G36*
X27790Y13657D02*
Y13390D01*
X28057D01*
X28052Y13431D01*
X28021Y13506D01*
X27971Y13571D01*
X27906Y13621D01*
X27831Y13652D01*
X27790Y13657D01*
D02*
G37*
G36*
X27710D02*
X27669Y13652D01*
X27594Y13621D01*
X27529Y13571D01*
X27479Y13506D01*
X27448Y13431D01*
X27443Y13390D01*
X27710D01*
Y13657D01*
D02*
G37*
G36*
X12290Y13503D02*
Y13190D01*
X12603D01*
X12596Y13243D01*
X12560Y13329D01*
X12503Y13403D01*
X12429Y13460D01*
X12343Y13496D01*
X12290Y13503D01*
D02*
G37*
G36*
X12210D02*
X12157Y13496D01*
X12071Y13460D01*
X11997Y13403D01*
X11940Y13329D01*
X11904Y13243D01*
X11897Y13190D01*
X12210D01*
Y13503D01*
D02*
G37*
G36*
X32848Y13681D02*
X32652D01*
X32579Y13671D01*
X32511Y13643D01*
X32453Y13598D01*
X32409Y13540D01*
X32381Y13473D01*
X32371Y13400D01*
X32381Y13327D01*
X32409Y13260D01*
X32453Y13202D01*
X32511Y13157D01*
X32579Y13129D01*
X32652Y13119D01*
X32848D01*
X32921Y13129D01*
X32989Y13157D01*
X33047Y13202D01*
X33091Y13260D01*
X33119Y13327D01*
X33129Y13400D01*
X33119Y13473D01*
X33091Y13540D01*
X33047Y13598D01*
X32989Y13643D01*
X32921Y13671D01*
X32848Y13681D01*
D02*
G37*
G36*
X28057Y13310D02*
X27790D01*
Y13043D01*
X27831Y13048D01*
X27906Y13079D01*
X27971Y13129D01*
X28021Y13194D01*
X28052Y13269D01*
X28057Y13310D01*
D02*
G37*
G36*
X27710D02*
X27443D01*
X27448Y13269D01*
X27479Y13194D01*
X27529Y13129D01*
X27594Y13079D01*
X27669Y13048D01*
X27710Y13043D01*
Y13310D01*
D02*
G37*
G36*
X12603Y13110D02*
X12290D01*
Y12797D01*
X12343Y12804D01*
X12429Y12840D01*
X12503Y12897D01*
X12560Y12971D01*
X12596Y13057D01*
X12603Y13110D01*
D02*
G37*
G36*
X12210D02*
X11897D01*
X11904Y13057D01*
X11940Y12971D01*
X11997Y12897D01*
X12071Y12840D01*
X12157Y12804D01*
X12210Y12797D01*
Y13110D01*
D02*
G37*
G36*
X31890Y12557D02*
Y12290D01*
X32157D01*
X32152Y12331D01*
X32121Y12406D01*
X32071Y12471D01*
X32006Y12521D01*
X31931Y12552D01*
X31890Y12557D01*
D02*
G37*
G36*
X31810D02*
X31769Y12552D01*
X31694Y12521D01*
X31629Y12471D01*
X31579Y12406D01*
X31548Y12331D01*
X31543Y12290D01*
X31810D01*
Y12557D01*
D02*
G37*
G36*
X28940Y12257D02*
Y11990D01*
X29207D01*
X29202Y12031D01*
X29171Y12106D01*
X29121Y12171D01*
X29056Y12221D01*
X28981Y12252D01*
X28940Y12257D01*
D02*
G37*
G36*
X28860D02*
X28819Y12252D01*
X28744Y12221D01*
X28679Y12171D01*
X28629Y12106D01*
X28598Y12031D01*
X28593Y11990D01*
X28860D01*
Y12257D01*
D02*
G37*
G36*
X32157Y12210D02*
X31890D01*
Y11943D01*
X31931Y11948D01*
X32006Y11979D01*
X32071Y12029D01*
X32121Y12094D01*
X32152Y12169D01*
X32157Y12210D01*
D02*
G37*
G36*
X31810D02*
X31543D01*
X31548Y12169D01*
X31579Y12094D01*
X31629Y12029D01*
X31694Y11979D01*
X31769Y11948D01*
X31810Y11943D01*
Y12210D01*
D02*
G37*
G36*
X12250Y12508D02*
X12157Y12496D01*
X12071Y12460D01*
X11997Y12403D01*
X11940Y12329D01*
X11904Y12243D01*
X11892Y12150D01*
X11904Y12057D01*
X11940Y11971D01*
X11997Y11897D01*
X12071Y11840D01*
X12157Y11804D01*
X12250Y11792D01*
X12343Y11804D01*
X12429Y11840D01*
X12503Y11897D01*
X12560Y11971D01*
X12596Y12057D01*
X12608Y12150D01*
X12596Y12243D01*
X12560Y12329D01*
X12503Y12403D01*
X12429Y12460D01*
X12343Y12496D01*
X12250Y12508D01*
D02*
G37*
G36*
X10250Y12564D02*
X10143Y12549D01*
X10043Y12508D01*
X9958Y12442D01*
X9892Y12357D01*
X9851Y12257D01*
X9836Y12150D01*
X9851Y12043D01*
X9892Y11943D01*
X9958Y11858D01*
X10043Y11792D01*
X10143Y11751D01*
X10250Y11736D01*
X10357Y11751D01*
X10457Y11792D01*
X10542Y11858D01*
X10608Y11943D01*
X10649Y12043D01*
X10664Y12150D01*
X10649Y12257D01*
X10608Y12357D01*
X10542Y12442D01*
X10457Y12508D01*
X10357Y12549D01*
X10250Y12564D01*
D02*
G37*
G36*
X29207Y11910D02*
X28940D01*
Y11643D01*
X28981Y11648D01*
X29056Y11679D01*
X29121Y11729D01*
X29171Y11794D01*
X29202Y11869D01*
X29207Y11910D01*
D02*
G37*
G36*
X28860D02*
X28593D01*
X28598Y11869D01*
X28629Y11794D01*
X28679Y11729D01*
X28744Y11679D01*
X28819Y11648D01*
X28860Y11643D01*
Y11910D01*
D02*
G37*
G36*
X12250Y11508D02*
X12157Y11496D01*
X12071Y11460D01*
X11997Y11403D01*
X11940Y11329D01*
X11904Y11243D01*
X11892Y11150D01*
X11904Y11057D01*
X11940Y10971D01*
X11997Y10897D01*
X12071Y10840D01*
X12157Y10804D01*
X12250Y10792D01*
X12343Y10804D01*
X12429Y10840D01*
X12503Y10897D01*
X12560Y10971D01*
X12596Y11057D01*
X12608Y11150D01*
X12596Y11243D01*
X12560Y11329D01*
X12503Y11403D01*
X12429Y11460D01*
X12343Y11496D01*
X12250Y11508D01*
D02*
G37*
G36*
Y10508D02*
X12157Y10496D01*
X12071Y10460D01*
X11997Y10403D01*
X11940Y10329D01*
X11904Y10243D01*
X11892Y10150D01*
X11904Y10057D01*
X11940Y9971D01*
X11997Y9897D01*
X12071Y9840D01*
X12157Y9804D01*
X12250Y9792D01*
X12343Y9804D01*
X12429Y9840D01*
X12503Y9897D01*
X12560Y9971D01*
X12596Y10057D01*
X12608Y10150D01*
X12596Y10243D01*
X12560Y10329D01*
X12503Y10403D01*
X12429Y10460D01*
X12343Y10496D01*
X12250Y10508D01*
D02*
G37*
G36*
X16750Y10313D02*
X16621Y10300D01*
X16496Y10263D01*
X16382Y10201D01*
X16281Y10119D01*
X16199Y10018D01*
X16137Y9904D01*
X16100Y9779D01*
X16087Y9650D01*
X16100Y9521D01*
X16137Y9396D01*
X16199Y9282D01*
X16281Y9181D01*
X16382Y9099D01*
X16496Y9037D01*
X16621Y9000D01*
X16750Y8987D01*
X16879Y9000D01*
X17004Y9037D01*
X17118Y9099D01*
X17219Y9181D01*
X17301Y9282D01*
X17363Y9396D01*
X17400Y9521D01*
X17413Y9650D01*
X17400Y9779D01*
X17363Y9904D01*
X17301Y10018D01*
X17219Y10119D01*
X17118Y10201D01*
X17004Y10263D01*
X16879Y10300D01*
X16750Y10313D01*
D02*
G37*
G36*
X12250Y9508D02*
X12157Y9496D01*
X12071Y9460D01*
X11997Y9403D01*
X11940Y9329D01*
X11904Y9243D01*
X11892Y9150D01*
X11904Y9057D01*
X11940Y8971D01*
X11997Y8897D01*
X12071Y8840D01*
X12157Y8804D01*
X12250Y8792D01*
X12343Y8804D01*
X12429Y8840D01*
X12503Y8897D01*
X12560Y8971D01*
X12596Y9057D01*
X12608Y9150D01*
X12596Y9243D01*
X12560Y9329D01*
X12503Y9403D01*
X12429Y9460D01*
X12343Y9496D01*
X12250Y9508D01*
D02*
G37*
G36*
X12605Y8505D02*
X11895D01*
Y7795D01*
X12605D01*
Y8505D01*
D02*
G37*
G36*
X9590Y6507D02*
Y6240D01*
X9857D01*
X9852Y6281D01*
X9821Y6356D01*
X9771Y6421D01*
X9706Y6471D01*
X9631Y6502D01*
X9590Y6507D01*
D02*
G37*
G36*
X9510D02*
X9469Y6502D01*
X9394Y6471D01*
X9329Y6421D01*
X9279Y6356D01*
X9248Y6281D01*
X9243Y6240D01*
X9510D01*
Y6507D01*
D02*
G37*
G36*
X9857Y6160D02*
X9590D01*
Y5893D01*
X9631Y5898D01*
X9706Y5929D01*
X9771Y5979D01*
X9821Y6044D01*
X9852Y6119D01*
X9857Y6160D01*
D02*
G37*
G36*
X9510D02*
X9243D01*
X9248Y6119D01*
X9279Y6044D01*
X9329Y5979D01*
X9394Y5929D01*
X9469Y5898D01*
X9510Y5893D01*
Y6160D01*
D02*
G37*
G36*
X1055Y5455D02*
X740D01*
Y5140D01*
X1055D01*
Y5455D01*
D02*
G37*
G36*
X660D02*
X345D01*
Y5140D01*
X660D01*
Y5455D01*
D02*
G37*
G36*
X1055Y5060D02*
X740D01*
Y4745D01*
X1055D01*
Y5060D01*
D02*
G37*
G36*
X660D02*
X345D01*
Y4745D01*
X660D01*
Y5060D01*
D02*
G37*
G36*
X3700Y5458D02*
X3607Y5446D01*
X3521Y5410D01*
X3447Y5353D01*
X3390Y5279D01*
X3354Y5193D01*
X3342Y5100D01*
X3354Y5007D01*
X3390Y4921D01*
X3447Y4847D01*
X3521Y4790D01*
X3607Y4754D01*
X3700Y4742D01*
X3793Y4754D01*
X3879Y4790D01*
X3953Y4847D01*
X4010Y4921D01*
X4046Y5007D01*
X4058Y5100D01*
X4046Y5193D01*
X4010Y5279D01*
X3953Y5353D01*
X3879Y5410D01*
X3793Y5446D01*
X3700Y5458D01*
D02*
G37*
G36*
X5840Y4457D02*
Y4190D01*
X6107D01*
X6102Y4231D01*
X6071Y4306D01*
X6021Y4371D01*
X5956Y4421D01*
X5881Y4452D01*
X5840Y4457D01*
D02*
G37*
G36*
X5760D02*
X5719Y4452D01*
X5644Y4421D01*
X5579Y4371D01*
X5529Y4306D01*
X5498Y4231D01*
X5493Y4190D01*
X5760D01*
Y4457D01*
D02*
G37*
G36*
X740Y4453D02*
Y4140D01*
X1053D01*
X1046Y4193D01*
X1010Y4279D01*
X953Y4353D01*
X879Y4410D01*
X793Y4446D01*
X740Y4453D01*
D02*
G37*
G36*
X660D02*
X607Y4446D01*
X521Y4410D01*
X447Y4353D01*
X390Y4279D01*
X354Y4193D01*
X347Y4140D01*
X660D01*
Y4453D01*
D02*
G37*
G36*
X6107Y4110D02*
X5840D01*
Y3843D01*
X5881Y3848D01*
X5956Y3879D01*
X6021Y3929D01*
X6071Y3994D01*
X6102Y4069D01*
X6107Y4110D01*
D02*
G37*
G36*
X5760D02*
X5493D01*
X5498Y4069D01*
X5529Y3994D01*
X5579Y3929D01*
X5644Y3879D01*
X5719Y3848D01*
X5760Y3843D01*
Y4110D01*
D02*
G37*
G36*
X26740Y4153D02*
Y3840D01*
X27053D01*
X27046Y3893D01*
X27010Y3979D01*
X26953Y4053D01*
X26879Y4110D01*
X26793Y4146D01*
X26740Y4153D01*
D02*
G37*
G36*
X26660D02*
X26607Y4146D01*
X26521Y4110D01*
X26447Y4053D01*
X26390Y3979D01*
X26354Y3893D01*
X26347Y3840D01*
X26660D01*
Y4153D01*
D02*
G37*
G36*
X1053Y4060D02*
X740D01*
Y3747D01*
X793Y3754D01*
X879Y3790D01*
X953Y3847D01*
X1010Y3921D01*
X1046Y4007D01*
X1053Y4060D01*
D02*
G37*
G36*
X660D02*
X347D01*
X354Y4007D01*
X390Y3921D01*
X447Y3847D01*
X521Y3790D01*
X607Y3754D01*
X660Y3747D01*
Y4060D01*
D02*
G37*
G36*
X3700Y4458D02*
X3607Y4446D01*
X3521Y4410D01*
X3447Y4353D01*
X3390Y4279D01*
X3354Y4193D01*
X3342Y4100D01*
X3354Y4007D01*
X3390Y3921D01*
X3447Y3847D01*
X3521Y3790D01*
X3607Y3754D01*
X3700Y3742D01*
X3793Y3754D01*
X3879Y3790D01*
X3953Y3847D01*
X4010Y3921D01*
X4046Y4007D01*
X4058Y4100D01*
X4046Y4193D01*
X4010Y4279D01*
X3953Y4353D01*
X3879Y4410D01*
X3793Y4446D01*
X3700Y4458D01*
D02*
G37*
G36*
X27053Y3760D02*
X26740D01*
Y3447D01*
X26793Y3454D01*
X26879Y3490D01*
X26953Y3547D01*
X27010Y3621D01*
X27046Y3707D01*
X27053Y3760D01*
D02*
G37*
G36*
X26660D02*
X26347D01*
X26354Y3707D01*
X26390Y3621D01*
X26447Y3547D01*
X26521Y3490D01*
X26607Y3454D01*
X26660Y3447D01*
Y3760D01*
D02*
G37*
G36*
X21055Y4155D02*
X20345D01*
Y3445D01*
X21055D01*
Y4155D01*
D02*
G37*
G36*
X27700Y4158D02*
X27607Y4146D01*
X27521Y4110D01*
X27447Y4053D01*
X27390Y3979D01*
X27354Y3893D01*
X27342Y3800D01*
X27354Y3707D01*
X27390Y3621D01*
X27447Y3547D01*
X27521Y3490D01*
X27607Y3454D01*
X27700Y3442D01*
X27793Y3454D01*
X27879Y3490D01*
X27953Y3547D01*
X28010Y3621D01*
X28046Y3707D01*
X28058Y3800D01*
X28046Y3893D01*
X28010Y3979D01*
X27953Y4053D01*
X27879Y4110D01*
X27793Y4146D01*
X27700Y4158D01*
D02*
G37*
G36*
X25700D02*
X25607Y4146D01*
X25521Y4110D01*
X25447Y4053D01*
X25390Y3979D01*
X25354Y3893D01*
X25342Y3800D01*
X25354Y3707D01*
X25390Y3621D01*
X25447Y3547D01*
X25521Y3490D01*
X25607Y3454D01*
X25700Y3442D01*
X25793Y3454D01*
X25879Y3490D01*
X25953Y3547D01*
X26010Y3621D01*
X26046Y3707D01*
X26058Y3800D01*
X26046Y3893D01*
X26010Y3979D01*
X25953Y4053D01*
X25879Y4110D01*
X25793Y4146D01*
X25700Y4158D01*
D02*
G37*
G36*
X24700D02*
X24607Y4146D01*
X24521Y4110D01*
X24447Y4053D01*
X24390Y3979D01*
X24354Y3893D01*
X24342Y3800D01*
X24354Y3707D01*
X24390Y3621D01*
X24447Y3547D01*
X24521Y3490D01*
X24607Y3454D01*
X24700Y3442D01*
X24793Y3454D01*
X24879Y3490D01*
X24953Y3547D01*
X25010Y3621D01*
X25046Y3707D01*
X25058Y3800D01*
X25046Y3893D01*
X25010Y3979D01*
X24953Y4053D01*
X24879Y4110D01*
X24793Y4146D01*
X24700Y4158D01*
D02*
G37*
G36*
X23700D02*
X23607Y4146D01*
X23521Y4110D01*
X23447Y4053D01*
X23390Y3979D01*
X23354Y3893D01*
X23342Y3800D01*
X23354Y3707D01*
X23390Y3621D01*
X23447Y3547D01*
X23521Y3490D01*
X23607Y3454D01*
X23700Y3442D01*
X23793Y3454D01*
X23879Y3490D01*
X23953Y3547D01*
X24010Y3621D01*
X24046Y3707D01*
X24058Y3800D01*
X24046Y3893D01*
X24010Y3979D01*
X23953Y4053D01*
X23879Y4110D01*
X23793Y4146D01*
X23700Y4158D01*
D02*
G37*
G36*
X22700D02*
X22607Y4146D01*
X22521Y4110D01*
X22447Y4053D01*
X22390Y3979D01*
X22354Y3893D01*
X22342Y3800D01*
X22354Y3707D01*
X22390Y3621D01*
X22447Y3547D01*
X22521Y3490D01*
X22607Y3454D01*
X22700Y3442D01*
X22793Y3454D01*
X22879Y3490D01*
X22953Y3547D01*
X23010Y3621D01*
X23046Y3707D01*
X23058Y3800D01*
X23046Y3893D01*
X23010Y3979D01*
X22953Y4053D01*
X22879Y4110D01*
X22793Y4146D01*
X22700Y4158D01*
D02*
G37*
G36*
X21700D02*
X21607Y4146D01*
X21521Y4110D01*
X21447Y4053D01*
X21390Y3979D01*
X21354Y3893D01*
X21342Y3800D01*
X21354Y3707D01*
X21390Y3621D01*
X21447Y3547D01*
X21521Y3490D01*
X21607Y3454D01*
X21700Y3442D01*
X21793Y3454D01*
X21879Y3490D01*
X21953Y3547D01*
X22010Y3621D01*
X22046Y3707D01*
X22058Y3800D01*
X22046Y3893D01*
X22010Y3979D01*
X21953Y4053D01*
X21879Y4110D01*
X21793Y4146D01*
X21700Y4158D01*
D02*
G37*
G36*
X31750Y3188D02*
X31616Y3175D01*
X31487Y3136D01*
X31368Y3072D01*
X31263Y2987D01*
X31178Y2882D01*
X31114Y2763D01*
X31075Y2634D01*
X31062Y2500D01*
X31075Y2366D01*
X31114Y2237D01*
X31178Y2118D01*
X31263Y2013D01*
X31368Y1928D01*
X31487Y1864D01*
X31616Y1825D01*
X31750Y1812D01*
X31884Y1825D01*
X32013Y1864D01*
X32132Y1928D01*
X32237Y2013D01*
X32322Y2118D01*
X32386Y2237D01*
X32425Y2366D01*
X32438Y2500D01*
X32425Y2634D01*
X32386Y2763D01*
X32322Y2882D01*
X32237Y2987D01*
X32132Y3072D01*
X32013Y3136D01*
X31884Y3175D01*
X31750Y3188D01*
D02*
G37*
G36*
X7790Y2108D02*
Y1790D01*
X8108D01*
X8101Y1844D01*
X8064Y1932D01*
X8007Y2007D01*
X7932Y2064D01*
X7844Y2101D01*
X7790Y2108D01*
D02*
G37*
G36*
X7710D02*
X7656Y2101D01*
X7568Y2064D01*
X7493Y2007D01*
X7436Y1932D01*
X7399Y1844D01*
X7392Y1790D01*
X7710D01*
Y2108D01*
D02*
G37*
G36*
X8108Y1710D02*
X7790D01*
Y1392D01*
X7844Y1399D01*
X7932Y1436D01*
X8007Y1493D01*
X8064Y1568D01*
X8101Y1656D01*
X8108Y1710D01*
D02*
G37*
G36*
X7710D02*
X7392D01*
X7399Y1656D01*
X7436Y1568D01*
X7493Y1493D01*
X7568Y1436D01*
X7656Y1399D01*
X7710Y1392D01*
Y1710D01*
D02*
G37*
G36*
X29750Y2113D02*
X29656Y2101D01*
X29568Y2064D01*
X29493Y2007D01*
X29436Y1932D01*
X29399Y1844D01*
X29387Y1750D01*
X29399Y1656D01*
X29436Y1568D01*
X29493Y1493D01*
X29568Y1436D01*
X29656Y1399D01*
X29750Y1387D01*
X29844Y1399D01*
X29932Y1436D01*
X30007Y1493D01*
X30064Y1568D01*
X30101Y1656D01*
X30113Y1750D01*
X30101Y1844D01*
X30064Y1932D01*
X30007Y2007D01*
X29932Y2064D01*
X29844Y2101D01*
X29750Y2113D01*
D02*
G37*
G36*
X28750D02*
X28656Y2101D01*
X28568Y2064D01*
X28493Y2007D01*
X28436Y1932D01*
X28399Y1844D01*
X28387Y1750D01*
X28399Y1656D01*
X28436Y1568D01*
X28493Y1493D01*
X28568Y1436D01*
X28656Y1399D01*
X28750Y1387D01*
X28844Y1399D01*
X28932Y1436D01*
X29007Y1493D01*
X29064Y1568D01*
X29101Y1656D01*
X29113Y1750D01*
X29101Y1844D01*
X29064Y1932D01*
X29007Y2007D01*
X28932Y2064D01*
X28844Y2101D01*
X28750Y2113D01*
D02*
G37*
G36*
X27750D02*
X27656Y2101D01*
X27568Y2064D01*
X27493Y2007D01*
X27436Y1932D01*
X27399Y1844D01*
X27387Y1750D01*
X27399Y1656D01*
X27436Y1568D01*
X27493Y1493D01*
X27568Y1436D01*
X27656Y1399D01*
X27750Y1387D01*
X27844Y1399D01*
X27932Y1436D01*
X28007Y1493D01*
X28064Y1568D01*
X28101Y1656D01*
X28113Y1750D01*
X28101Y1844D01*
X28064Y1932D01*
X28007Y2007D01*
X27932Y2064D01*
X27844Y2101D01*
X27750Y2113D01*
D02*
G37*
G36*
X26750D02*
X26656Y2101D01*
X26568Y2064D01*
X26493Y2007D01*
X26436Y1932D01*
X26399Y1844D01*
X26387Y1750D01*
X26399Y1656D01*
X26436Y1568D01*
X26493Y1493D01*
X26568Y1436D01*
X26656Y1399D01*
X26750Y1387D01*
X26844Y1399D01*
X26932Y1436D01*
X27007Y1493D01*
X27064Y1568D01*
X27101Y1656D01*
X27113Y1750D01*
X27101Y1844D01*
X27064Y1932D01*
X27007Y2007D01*
X26932Y2064D01*
X26844Y2101D01*
X26750Y2113D01*
D02*
G37*
G36*
X25750D02*
X25656Y2101D01*
X25568Y2064D01*
X25493Y2007D01*
X25436Y1932D01*
X25399Y1844D01*
X25387Y1750D01*
X25399Y1656D01*
X25436Y1568D01*
X25493Y1493D01*
X25568Y1436D01*
X25656Y1399D01*
X25750Y1387D01*
X25844Y1399D01*
X25932Y1436D01*
X26007Y1493D01*
X26064Y1568D01*
X26101Y1656D01*
X26113Y1750D01*
X26101Y1844D01*
X26064Y1932D01*
X26007Y2007D01*
X25932Y2064D01*
X25844Y2101D01*
X25750Y2113D01*
D02*
G37*
G36*
X24750D02*
X24656Y2101D01*
X24568Y2064D01*
X24493Y2007D01*
X24436Y1932D01*
X24399Y1844D01*
X24387Y1750D01*
X24399Y1656D01*
X24436Y1568D01*
X24493Y1493D01*
X24568Y1436D01*
X24656Y1399D01*
X24750Y1387D01*
X24844Y1399D01*
X24932Y1436D01*
X25007Y1493D01*
X25064Y1568D01*
X25101Y1656D01*
X25113Y1750D01*
X25101Y1844D01*
X25064Y1932D01*
X25007Y2007D01*
X24932Y2064D01*
X24844Y2101D01*
X24750Y2113D01*
D02*
G37*
G36*
X23750D02*
X23656Y2101D01*
X23568Y2064D01*
X23493Y2007D01*
X23436Y1932D01*
X23399Y1844D01*
X23387Y1750D01*
X23399Y1656D01*
X23436Y1568D01*
X23493Y1493D01*
X23568Y1436D01*
X23656Y1399D01*
X23750Y1387D01*
X23844Y1399D01*
X23932Y1436D01*
X24007Y1493D01*
X24064Y1568D01*
X24101Y1656D01*
X24113Y1750D01*
X24101Y1844D01*
X24064Y1932D01*
X24007Y2007D01*
X23932Y2064D01*
X23844Y2101D01*
X23750Y2113D01*
D02*
G37*
G36*
X22750D02*
X22656Y2101D01*
X22568Y2064D01*
X22493Y2007D01*
X22436Y1932D01*
X22399Y1844D01*
X22387Y1750D01*
X22399Y1656D01*
X22436Y1568D01*
X22493Y1493D01*
X22568Y1436D01*
X22656Y1399D01*
X22750Y1387D01*
X22844Y1399D01*
X22932Y1436D01*
X23007Y1493D01*
X23064Y1568D01*
X23101Y1656D01*
X23113Y1750D01*
X23101Y1844D01*
X23064Y1932D01*
X23007Y2007D01*
X22932Y2064D01*
X22844Y2101D01*
X22750Y2113D01*
D02*
G37*
G36*
X21750D02*
X21656Y2101D01*
X21568Y2064D01*
X21493Y2007D01*
X21436Y1932D01*
X21399Y1844D01*
X21387Y1750D01*
X21399Y1656D01*
X21436Y1568D01*
X21493Y1493D01*
X21568Y1436D01*
X21656Y1399D01*
X21750Y1387D01*
X21844Y1399D01*
X21932Y1436D01*
X22007Y1493D01*
X22064Y1568D01*
X22101Y1656D01*
X22113Y1750D01*
X22101Y1844D01*
X22064Y1932D01*
X22007Y2007D01*
X21932Y2064D01*
X21844Y2101D01*
X21750Y2113D01*
D02*
G37*
G36*
X20750D02*
X20656Y2101D01*
X20568Y2064D01*
X20493Y2007D01*
X20436Y1932D01*
X20399Y1844D01*
X20387Y1750D01*
X20399Y1656D01*
X20436Y1568D01*
X20493Y1493D01*
X20568Y1436D01*
X20656Y1399D01*
X20750Y1387D01*
X20844Y1399D01*
X20932Y1436D01*
X21007Y1493D01*
X21064Y1568D01*
X21101Y1656D01*
X21113Y1750D01*
X21101Y1844D01*
X21064Y1932D01*
X21007Y2007D01*
X20932Y2064D01*
X20844Y2101D01*
X20750Y2113D01*
D02*
G37*
G36*
X19750D02*
X19656Y2101D01*
X19568Y2064D01*
X19493Y2007D01*
X19436Y1932D01*
X19399Y1844D01*
X19387Y1750D01*
X19399Y1656D01*
X19436Y1568D01*
X19493Y1493D01*
X19568Y1436D01*
X19656Y1399D01*
X19750Y1387D01*
X19844Y1399D01*
X19932Y1436D01*
X20007Y1493D01*
X20064Y1568D01*
X20101Y1656D01*
X20113Y1750D01*
X20101Y1844D01*
X20064Y1932D01*
X20007Y2007D01*
X19932Y2064D01*
X19844Y2101D01*
X19750Y2113D01*
D02*
G37*
G36*
X18750D02*
X18656Y2101D01*
X18568Y2064D01*
X18493Y2007D01*
X18436Y1932D01*
X18399Y1844D01*
X18387Y1750D01*
X18399Y1656D01*
X18436Y1568D01*
X18493Y1493D01*
X18568Y1436D01*
X18656Y1399D01*
X18750Y1387D01*
X18844Y1399D01*
X18932Y1436D01*
X19007Y1493D01*
X19064Y1568D01*
X19101Y1656D01*
X19113Y1750D01*
X19101Y1844D01*
X19064Y1932D01*
X19007Y2007D01*
X18932Y2064D01*
X18844Y2101D01*
X18750Y2113D01*
D02*
G37*
G36*
X17750D02*
X17656Y2101D01*
X17568Y2064D01*
X17493Y2007D01*
X17436Y1932D01*
X17399Y1844D01*
X17387Y1750D01*
X17399Y1656D01*
X17436Y1568D01*
X17493Y1493D01*
X17568Y1436D01*
X17656Y1399D01*
X17750Y1387D01*
X17844Y1399D01*
X17932Y1436D01*
X18007Y1493D01*
X18064Y1568D01*
X18101Y1656D01*
X18113Y1750D01*
X18101Y1844D01*
X18064Y1932D01*
X18007Y2007D01*
X17932Y2064D01*
X17844Y2101D01*
X17750Y2113D01*
D02*
G37*
G36*
X13396Y4021D02*
X13314Y4005D01*
X13245Y3958D01*
X13199Y3889D01*
X13182Y3807D01*
X13199Y3725D01*
X13245Y3656D01*
X13314Y3609D01*
X13396Y3593D01*
X13478Y3609D01*
X13548Y3656D01*
X13594Y3725D01*
X13597Y3738D01*
X14554D01*
X16413Y1878D01*
X16399Y1844D01*
X16387Y1750D01*
X16399Y1656D01*
X16436Y1568D01*
X16493Y1493D01*
X16568Y1436D01*
X16656Y1399D01*
X16750Y1387D01*
X16844Y1399D01*
X16932Y1436D01*
X17007Y1493D01*
X17064Y1568D01*
X17101Y1656D01*
X17113Y1750D01*
X17101Y1844D01*
X17064Y1932D01*
X17007Y2007D01*
X16932Y2064D01*
X16844Y2101D01*
X16750Y2113D01*
X16656Y2101D01*
X16568Y2064D01*
X16555Y2054D01*
X14679Y3929D01*
X14643Y3954D01*
X14600Y3962D01*
X14600Y3962D01*
X13542D01*
X13478Y4005D01*
X13396Y4021D01*
D02*
G37*
G36*
X12750Y2113D02*
X12656Y2101D01*
X12568Y2064D01*
X12493Y2007D01*
X12436Y1932D01*
X12399Y1844D01*
X12387Y1750D01*
X12399Y1656D01*
X12436Y1568D01*
X12493Y1493D01*
X12568Y1436D01*
X12656Y1399D01*
X12750Y1387D01*
X12844Y1399D01*
X12932Y1436D01*
X13007Y1493D01*
X13064Y1568D01*
X13101Y1656D01*
X13113Y1750D01*
X13101Y1844D01*
X13064Y1932D01*
X13007Y2007D01*
X12932Y2064D01*
X12844Y2101D01*
X12750Y2113D01*
D02*
G37*
G36*
X11750D02*
X11656Y2101D01*
X11568Y2064D01*
X11493Y2007D01*
X11436Y1932D01*
X11399Y1844D01*
X11387Y1750D01*
X11399Y1656D01*
X11436Y1568D01*
X11493Y1493D01*
X11568Y1436D01*
X11656Y1399D01*
X11750Y1387D01*
X11844Y1399D01*
X11932Y1436D01*
X12007Y1493D01*
X12064Y1568D01*
X12101Y1656D01*
X12113Y1750D01*
X12101Y1844D01*
X12064Y1932D01*
X12007Y2007D01*
X11932Y2064D01*
X11844Y2101D01*
X11750Y2113D01*
D02*
G37*
G36*
X10750D02*
X10656Y2101D01*
X10568Y2064D01*
X10493Y2007D01*
X10436Y1932D01*
X10399Y1844D01*
X10387Y1750D01*
X10399Y1656D01*
X10436Y1568D01*
X10493Y1493D01*
X10568Y1436D01*
X10656Y1399D01*
X10750Y1387D01*
X10844Y1399D01*
X10932Y1436D01*
X11007Y1493D01*
X11064Y1568D01*
X11101Y1656D01*
X11113Y1750D01*
X11101Y1844D01*
X11064Y1932D01*
X11007Y2007D01*
X10932Y2064D01*
X10844Y2101D01*
X10750Y2113D01*
D02*
G37*
G36*
X9750D02*
X9656Y2101D01*
X9568Y2064D01*
X9493Y2007D01*
X9436Y1932D01*
X9399Y1844D01*
X9387Y1750D01*
X9399Y1656D01*
X9436Y1568D01*
X9493Y1493D01*
X9568Y1436D01*
X9656Y1399D01*
X9750Y1387D01*
X9844Y1399D01*
X9932Y1436D01*
X10007Y1493D01*
X10064Y1568D01*
X10101Y1656D01*
X10113Y1750D01*
X10101Y1844D01*
X10064Y1932D01*
X10007Y2007D01*
X9932Y2064D01*
X9844Y2101D01*
X9750Y2113D01*
D02*
G37*
G36*
X8750D02*
X8656Y2101D01*
X8568Y2064D01*
X8493Y2007D01*
X8436Y1932D01*
X8399Y1844D01*
X8387Y1750D01*
X8399Y1656D01*
X8436Y1568D01*
X8493Y1493D01*
X8568Y1436D01*
X8656Y1399D01*
X8750Y1387D01*
X8844Y1399D01*
X8932Y1436D01*
X9007Y1493D01*
X9064Y1568D01*
X9101Y1656D01*
X9113Y1750D01*
X9101Y1844D01*
X9064Y1932D01*
X9007Y2007D01*
X8932Y2064D01*
X8844Y2101D01*
X8750Y2113D01*
D02*
G37*
G36*
X7790Y1108D02*
Y790D01*
X8108D01*
X8101Y844D01*
X8064Y932D01*
X8007Y1007D01*
X7932Y1064D01*
X7844Y1101D01*
X7790Y1108D01*
D02*
G37*
G36*
X7710D02*
X7656Y1101D01*
X7568Y1064D01*
X7493Y1007D01*
X7436Y932D01*
X7399Y844D01*
X7392Y790D01*
X7710D01*
Y1108D01*
D02*
G37*
G36*
X5750Y1938D02*
X5616Y1925D01*
X5487Y1886D01*
X5368Y1822D01*
X5263Y1737D01*
X5178Y1632D01*
X5114Y1513D01*
X5075Y1384D01*
X5062Y1250D01*
X5075Y1116D01*
X5114Y987D01*
X5178Y868D01*
X5263Y763D01*
X5368Y678D01*
X5487Y614D01*
X5616Y575D01*
X5750Y562D01*
X5884Y575D01*
X6013Y614D01*
X6132Y678D01*
X6237Y763D01*
X6322Y868D01*
X6386Y987D01*
X6425Y1116D01*
X6438Y1250D01*
X6425Y1384D01*
X6386Y1513D01*
X6322Y1632D01*
X6237Y1737D01*
X6132Y1822D01*
X6013Y1886D01*
X5884Y1925D01*
X5750Y1938D01*
D02*
G37*
G36*
X8108Y710D02*
X7790D01*
Y392D01*
X7844Y399D01*
X7932Y436D01*
X8007Y493D01*
X8064Y568D01*
X8101Y656D01*
X8108Y710D01*
D02*
G37*
G36*
X7710D02*
X7392D01*
X7399Y656D01*
X7436Y568D01*
X7493Y493D01*
X7568Y436D01*
X7656Y399D01*
X7710Y392D01*
Y710D01*
D02*
G37*
G36*
X29750Y1113D02*
X29656Y1101D01*
X29568Y1064D01*
X29493Y1007D01*
X29436Y932D01*
X29399Y844D01*
X29387Y750D01*
X29399Y656D01*
X29436Y568D01*
X29493Y493D01*
X29568Y436D01*
X29656Y399D01*
X29750Y387D01*
X29844Y399D01*
X29932Y436D01*
X30007Y493D01*
X30064Y568D01*
X30101Y656D01*
X30113Y750D01*
X30101Y844D01*
X30064Y932D01*
X30007Y1007D01*
X29932Y1064D01*
X29844Y1101D01*
X29750Y1113D01*
D02*
G37*
G36*
X28750D02*
X28656Y1101D01*
X28568Y1064D01*
X28493Y1007D01*
X28436Y932D01*
X28399Y844D01*
X28387Y750D01*
X28399Y656D01*
X28436Y568D01*
X28493Y493D01*
X28568Y436D01*
X28656Y399D01*
X28750Y387D01*
X28844Y399D01*
X28932Y436D01*
X29007Y493D01*
X29064Y568D01*
X29101Y656D01*
X29113Y750D01*
X29101Y844D01*
X29064Y932D01*
X29007Y1007D01*
X28932Y1064D01*
X28844Y1101D01*
X28750Y1113D01*
D02*
G37*
G36*
X27750D02*
X27656Y1101D01*
X27568Y1064D01*
X27493Y1007D01*
X27436Y932D01*
X27399Y844D01*
X27387Y750D01*
X27399Y656D01*
X27436Y568D01*
X27493Y493D01*
X27568Y436D01*
X27656Y399D01*
X27750Y387D01*
X27844Y399D01*
X27932Y436D01*
X28007Y493D01*
X28064Y568D01*
X28101Y656D01*
X28113Y750D01*
X28101Y844D01*
X28064Y932D01*
X28007Y1007D01*
X27932Y1064D01*
X27844Y1101D01*
X27750Y1113D01*
D02*
G37*
G36*
X26750D02*
X26656Y1101D01*
X26568Y1064D01*
X26493Y1007D01*
X26436Y932D01*
X26399Y844D01*
X26387Y750D01*
X26399Y656D01*
X26436Y568D01*
X26493Y493D01*
X26568Y436D01*
X26656Y399D01*
X26750Y387D01*
X26844Y399D01*
X26932Y436D01*
X27007Y493D01*
X27064Y568D01*
X27101Y656D01*
X27113Y750D01*
X27101Y844D01*
X27064Y932D01*
X27007Y1007D01*
X26932Y1064D01*
X26844Y1101D01*
X26750Y1113D01*
D02*
G37*
G36*
X25750D02*
X25656Y1101D01*
X25568Y1064D01*
X25493Y1007D01*
X25436Y932D01*
X25399Y844D01*
X25387Y750D01*
X25399Y656D01*
X25436Y568D01*
X25493Y493D01*
X25568Y436D01*
X25656Y399D01*
X25750Y387D01*
X25844Y399D01*
X25932Y436D01*
X26007Y493D01*
X26064Y568D01*
X26101Y656D01*
X26113Y750D01*
X26101Y844D01*
X26064Y932D01*
X26007Y1007D01*
X25932Y1064D01*
X25844Y1101D01*
X25750Y1113D01*
D02*
G37*
G36*
X24750D02*
X24656Y1101D01*
X24568Y1064D01*
X24493Y1007D01*
X24436Y932D01*
X24399Y844D01*
X24387Y750D01*
X24399Y656D01*
X24436Y568D01*
X24493Y493D01*
X24568Y436D01*
X24656Y399D01*
X24750Y387D01*
X24844Y399D01*
X24932Y436D01*
X25007Y493D01*
X25064Y568D01*
X25101Y656D01*
X25113Y750D01*
X25101Y844D01*
X25064Y932D01*
X25007Y1007D01*
X24932Y1064D01*
X24844Y1101D01*
X24750Y1113D01*
D02*
G37*
G36*
X23750D02*
X23656Y1101D01*
X23568Y1064D01*
X23493Y1007D01*
X23436Y932D01*
X23399Y844D01*
X23387Y750D01*
X23399Y656D01*
X23436Y568D01*
X23493Y493D01*
X23568Y436D01*
X23656Y399D01*
X23750Y387D01*
X23844Y399D01*
X23932Y436D01*
X24007Y493D01*
X24064Y568D01*
X24101Y656D01*
X24113Y750D01*
X24101Y844D01*
X24064Y932D01*
X24007Y1007D01*
X23932Y1064D01*
X23844Y1101D01*
X23750Y1113D01*
D02*
G37*
G36*
X22750D02*
X22656Y1101D01*
X22568Y1064D01*
X22493Y1007D01*
X22436Y932D01*
X22399Y844D01*
X22387Y750D01*
X22399Y656D01*
X22436Y568D01*
X22493Y493D01*
X22568Y436D01*
X22656Y399D01*
X22750Y387D01*
X22844Y399D01*
X22932Y436D01*
X23007Y493D01*
X23064Y568D01*
X23101Y656D01*
X23113Y750D01*
X23101Y844D01*
X23064Y932D01*
X23007Y1007D01*
X22932Y1064D01*
X22844Y1101D01*
X22750Y1113D01*
D02*
G37*
G36*
X21750D02*
X21656Y1101D01*
X21568Y1064D01*
X21493Y1007D01*
X21436Y932D01*
X21399Y844D01*
X21387Y750D01*
X21399Y656D01*
X21436Y568D01*
X21493Y493D01*
X21568Y436D01*
X21656Y399D01*
X21750Y387D01*
X21844Y399D01*
X21932Y436D01*
X22007Y493D01*
X22064Y568D01*
X22101Y656D01*
X22113Y750D01*
X22101Y844D01*
X22064Y932D01*
X22007Y1007D01*
X21932Y1064D01*
X21844Y1101D01*
X21750Y1113D01*
D02*
G37*
G36*
X20750D02*
X20656Y1101D01*
X20568Y1064D01*
X20493Y1007D01*
X20436Y932D01*
X20399Y844D01*
X20387Y750D01*
X20399Y656D01*
X20436Y568D01*
X20493Y493D01*
X20568Y436D01*
X20656Y399D01*
X20750Y387D01*
X20844Y399D01*
X20932Y436D01*
X21007Y493D01*
X21064Y568D01*
X21101Y656D01*
X21113Y750D01*
X21101Y844D01*
X21064Y932D01*
X21007Y1007D01*
X20932Y1064D01*
X20844Y1101D01*
X20750Y1113D01*
D02*
G37*
G36*
X19750D02*
X19656Y1101D01*
X19568Y1064D01*
X19493Y1007D01*
X19436Y932D01*
X19399Y844D01*
X19387Y750D01*
X19399Y656D01*
X19436Y568D01*
X19493Y493D01*
X19568Y436D01*
X19656Y399D01*
X19750Y387D01*
X19844Y399D01*
X19932Y436D01*
X20007Y493D01*
X20064Y568D01*
X20101Y656D01*
X20113Y750D01*
X20101Y844D01*
X20064Y932D01*
X20007Y1007D01*
X19932Y1064D01*
X19844Y1101D01*
X19750Y1113D01*
D02*
G37*
G36*
X18750D02*
X18656Y1101D01*
X18568Y1064D01*
X18493Y1007D01*
X18436Y932D01*
X18399Y844D01*
X18387Y750D01*
X18399Y656D01*
X18436Y568D01*
X18493Y493D01*
X18568Y436D01*
X18656Y399D01*
X18750Y387D01*
X18844Y399D01*
X18932Y436D01*
X19007Y493D01*
X19064Y568D01*
X19101Y656D01*
X19113Y750D01*
X19101Y844D01*
X19064Y932D01*
X19007Y1007D01*
X18932Y1064D01*
X18844Y1101D01*
X18750Y1113D01*
D02*
G37*
G36*
X17750D02*
X17656Y1101D01*
X17568Y1064D01*
X17493Y1007D01*
X17436Y932D01*
X17399Y844D01*
X17387Y750D01*
X17399Y656D01*
X17436Y568D01*
X17493Y493D01*
X17568Y436D01*
X17656Y399D01*
X17750Y387D01*
X17844Y399D01*
X17932Y436D01*
X18007Y493D01*
X18064Y568D01*
X18101Y656D01*
X18113Y750D01*
X18101Y844D01*
X18064Y932D01*
X18007Y1007D01*
X17932Y1064D01*
X17844Y1101D01*
X17750Y1113D01*
D02*
G37*
G36*
X8500Y5713D02*
X8419Y5702D01*
X8344Y5671D01*
X8279Y5621D01*
X8229Y5556D01*
X8198Y5481D01*
X8187Y5400D01*
X8198Y5319D01*
X8229Y5244D01*
X8279Y5179D01*
X8344Y5129D01*
X8419Y5098D01*
X8500Y5087D01*
X8581Y5098D01*
X8656Y5129D01*
X8721Y5179D01*
X8771Y5244D01*
X8789Y5288D01*
X10633D01*
X13764Y2157D01*
X13739Y2112D01*
X13656Y2101D01*
X13568Y2064D01*
X13493Y2007D01*
X13436Y1932D01*
X13399Y1844D01*
X13387Y1750D01*
X13399Y1656D01*
X13436Y1568D01*
X13493Y1493D01*
X13568Y1436D01*
X13656Y1399D01*
X13750Y1387D01*
X13844Y1399D01*
X13932Y1436D01*
X14007Y1493D01*
X14020Y1511D01*
X14080Y1511D01*
X14082Y1509D01*
X14421Y1171D01*
X14421Y1171D01*
X14457Y1146D01*
X14500Y1138D01*
X14615D01*
X14625Y1088D01*
X14568Y1064D01*
X14493Y1007D01*
X14436Y932D01*
X14399Y844D01*
X14387Y750D01*
X14399Y656D01*
X14436Y568D01*
X14493Y493D01*
X14568Y436D01*
X14656Y399D01*
X14750Y387D01*
X14844Y399D01*
X14932Y436D01*
X15007Y493D01*
X15064Y568D01*
X15101Y656D01*
X15113Y750D01*
X15101Y844D01*
X15064Y932D01*
X15007Y1007D01*
X14932Y1064D01*
X14875Y1088D01*
X14885Y1138D01*
X15615D01*
X15625Y1088D01*
X15568Y1064D01*
X15493Y1007D01*
X15436Y932D01*
X15399Y844D01*
X15387Y750D01*
X15399Y656D01*
X15436Y568D01*
X15493Y493D01*
X15568Y436D01*
X15656Y399D01*
X15750Y387D01*
X15844Y399D01*
X15932Y436D01*
X16007Y493D01*
X16064Y568D01*
X16101Y656D01*
X16113Y750D01*
X16101Y844D01*
X16064Y932D01*
X16007Y1007D01*
X15932Y1064D01*
X15875Y1088D01*
X15885Y1138D01*
X16154D01*
X16413Y878D01*
X16399Y844D01*
X16387Y750D01*
X16399Y656D01*
X16436Y568D01*
X16493Y493D01*
X16568Y436D01*
X16656Y399D01*
X16750Y387D01*
X16844Y399D01*
X16932Y436D01*
X17007Y493D01*
X17064Y568D01*
X17101Y656D01*
X17113Y750D01*
X17101Y844D01*
X17064Y932D01*
X17007Y1007D01*
X16932Y1064D01*
X16844Y1101D01*
X16750Y1113D01*
X16656Y1101D01*
X16568Y1064D01*
X16555Y1054D01*
X16279Y1329D01*
X16243Y1354D01*
X16200Y1362D01*
X16200Y1362D01*
X15885D01*
X15875Y1412D01*
X15932Y1436D01*
X16007Y1493D01*
X16064Y1568D01*
X16101Y1656D01*
X16113Y1750D01*
X16101Y1844D01*
X16064Y1932D01*
X16007Y2007D01*
X15932Y2064D01*
X15844Y2101D01*
X15750Y2113D01*
X15656Y2101D01*
X15568Y2064D01*
X15493Y2007D01*
X15436Y1932D01*
X15399Y1844D01*
X15387Y1750D01*
X15399Y1656D01*
X15436Y1568D01*
X15493Y1493D01*
X15568Y1436D01*
X15625Y1412D01*
X15615Y1362D01*
X14885D01*
X14875Y1412D01*
X14932Y1436D01*
X15007Y1493D01*
X15064Y1568D01*
X15101Y1656D01*
X15113Y1750D01*
X15101Y1844D01*
X15064Y1932D01*
X15007Y2007D01*
X14932Y2064D01*
X14844Y2101D01*
X14750Y2113D01*
X14656Y2101D01*
X14568Y2064D01*
X14493Y2007D01*
X14436Y1932D01*
X14399Y1844D01*
X14387Y1750D01*
X14399Y1656D01*
X14436Y1568D01*
X14493Y1493D01*
X14568Y1436D01*
X14625Y1412D01*
X14615Y1362D01*
X14546D01*
X14272Y1636D01*
Y1840D01*
X14264Y1883D01*
X14248Y1906D01*
X14204Y2012D01*
X14121Y2121D01*
X14121Y2121D01*
X14084Y2155D01*
X10759Y5479D01*
X10723Y5504D01*
X10680Y5512D01*
X10680Y5512D01*
X8789D01*
X8771Y5556D01*
X8721Y5621D01*
X8656Y5671D01*
X8581Y5702D01*
X8500Y5713D01*
D02*
G37*
G36*
X13750Y1113D02*
X13656Y1101D01*
X13568Y1064D01*
X13493Y1007D01*
X13436Y932D01*
X13399Y844D01*
X13387Y750D01*
X13399Y656D01*
X13436Y568D01*
X13493Y493D01*
X13568Y436D01*
X13656Y399D01*
X13750Y387D01*
X13844Y399D01*
X13932Y436D01*
X14007Y493D01*
X14064Y568D01*
X14101Y656D01*
X14113Y750D01*
X14101Y844D01*
X14064Y932D01*
X14007Y1007D01*
X13932Y1064D01*
X13844Y1101D01*
X13750Y1113D01*
D02*
G37*
G36*
X12750D02*
X12656Y1101D01*
X12568Y1064D01*
X12493Y1007D01*
X12436Y932D01*
X12399Y844D01*
X12387Y750D01*
X12399Y656D01*
X12436Y568D01*
X12493Y493D01*
X12568Y436D01*
X12656Y399D01*
X12750Y387D01*
X12844Y399D01*
X12932Y436D01*
X13007Y493D01*
X13064Y568D01*
X13101Y656D01*
X13113Y750D01*
X13101Y844D01*
X13064Y932D01*
X13007Y1007D01*
X12932Y1064D01*
X12844Y1101D01*
X12750Y1113D01*
D02*
G37*
G36*
X11750D02*
X11656Y1101D01*
X11568Y1064D01*
X11493Y1007D01*
X11436Y932D01*
X11399Y844D01*
X11387Y750D01*
X11399Y656D01*
X11436Y568D01*
X11493Y493D01*
X11568Y436D01*
X11656Y399D01*
X11750Y387D01*
X11844Y399D01*
X11932Y436D01*
X12007Y493D01*
X12064Y568D01*
X12101Y656D01*
X12113Y750D01*
X12101Y844D01*
X12064Y932D01*
X12007Y1007D01*
X11932Y1064D01*
X11844Y1101D01*
X11750Y1113D01*
D02*
G37*
G36*
X10750D02*
X10656Y1101D01*
X10568Y1064D01*
X10493Y1007D01*
X10436Y932D01*
X10399Y844D01*
X10387Y750D01*
X10399Y656D01*
X10436Y568D01*
X10493Y493D01*
X10568Y436D01*
X10656Y399D01*
X10750Y387D01*
X10844Y399D01*
X10932Y436D01*
X11007Y493D01*
X11064Y568D01*
X11101Y656D01*
X11113Y750D01*
X11101Y844D01*
X11064Y932D01*
X11007Y1007D01*
X10932Y1064D01*
X10844Y1101D01*
X10750Y1113D01*
D02*
G37*
G36*
X9750D02*
X9656Y1101D01*
X9568Y1064D01*
X9493Y1007D01*
X9436Y932D01*
X9399Y844D01*
X9387Y750D01*
X9399Y656D01*
X9436Y568D01*
X9493Y493D01*
X9568Y436D01*
X9656Y399D01*
X9750Y387D01*
X9844Y399D01*
X9932Y436D01*
X10007Y493D01*
X10064Y568D01*
X10101Y656D01*
X10113Y750D01*
X10101Y844D01*
X10064Y932D01*
X10007Y1007D01*
X9932Y1064D01*
X9844Y1101D01*
X9750Y1113D01*
D02*
G37*
G36*
X8750D02*
X8656Y1101D01*
X8568Y1064D01*
X8493Y1007D01*
X8436Y932D01*
X8399Y844D01*
X8387Y750D01*
X8399Y656D01*
X8436Y568D01*
X8493Y493D01*
X8568Y436D01*
X8656Y399D01*
X8750Y387D01*
X8844Y399D01*
X8932Y436D01*
X9007Y493D01*
X9064Y568D01*
X9101Y656D01*
X9113Y750D01*
X9101Y844D01*
X9064Y932D01*
X9007Y1007D01*
X8932Y1064D01*
X8844Y1101D01*
X8750Y1113D01*
D02*
G37*
%LPD*%
D14*
X14147Y1853D02*
G03*
X14040Y2040I-397J-103D01*
G01*
X13396Y3807D02*
X13439Y3850D01*
X14600D01*
X8500Y5400D02*
X10680D01*
X14040Y2040D01*
Y2040D02*
X14040Y2040D01*
X14040Y2040D02*
Y2040D01*
X14147Y1853D02*
X14160Y1840D01*
Y1590D02*
Y1840D01*
X14600Y3850D02*
X16700Y1750D01*
X16750D01*
X14160Y1590D02*
X14500Y1250D01*
X16200D01*
X16700Y750D01*
X16750D01*
D73*
X7750D02*
D03*
X8750D02*
D03*
X9750D02*
D03*
X10750D02*
D03*
X11750D02*
D03*
X12750D02*
D03*
X13750D02*
D03*
X14750D02*
D03*
X15750D02*
D03*
X16750D02*
D03*
X17750D02*
D03*
X18750D02*
D03*
X19750D02*
D03*
X20750D02*
D03*
X21750D02*
D03*
X22750D02*
D03*
X23750D02*
D03*
X24750D02*
D03*
X25750D02*
D03*
X26750D02*
D03*
X27750D02*
D03*
X28750D02*
D03*
X29750D02*
D03*
X7750Y1750D02*
D03*
X8750D02*
D03*
X9750D02*
D03*
X10750D02*
D03*
X11750D02*
D03*
X12750D02*
D03*
X13750D02*
D03*
X14750D02*
D03*
X15750D02*
D03*
X16750D02*
D03*
X17750D02*
D03*
X18750D02*
D03*
X19750D02*
D03*
X20750D02*
D03*
X21750D02*
D03*
X22750D02*
D03*
X23750D02*
D03*
X24750D02*
D03*
X25750D02*
D03*
X26750D02*
D03*
X27750D02*
D03*
X28750D02*
D03*
X29750D02*
D03*
Y20750D02*
D03*
X28750D02*
D03*
X27750D02*
D03*
X26750D02*
D03*
X25750D02*
D03*
X24750D02*
D03*
X23750D02*
D03*
X22750D02*
D03*
X21750D02*
D03*
X20750D02*
D03*
X19750D02*
D03*
X18750D02*
D03*
X17750D02*
D03*
X16750D02*
D03*
X15750D02*
D03*
X14750D02*
D03*
X13750D02*
D03*
X12750D02*
D03*
X11750D02*
D03*
X10750D02*
D03*
X9750D02*
D03*
X8750D02*
D03*
X7750D02*
D03*
X29750Y19750D02*
D03*
X28750D02*
D03*
X27750D02*
D03*
X26750D02*
D03*
X25750D02*
D03*
X24750D02*
D03*
X23750D02*
D03*
X22750D02*
D03*
X21750D02*
D03*
X20750D02*
D03*
X19750D02*
D03*
X18750D02*
D03*
X17750D02*
D03*
X16750D02*
D03*
X15750D02*
D03*
X14750D02*
D03*
X13750D02*
D03*
X12750D02*
D03*
X11750D02*
D03*
X10750D02*
D03*
X9750D02*
D03*
X8750D02*
D03*
X7750D02*
D03*
D74*
X27700Y3800D02*
D03*
X26700D02*
D03*
X25700D02*
D03*
X24700D02*
D03*
X23700D02*
D03*
X22700D02*
D03*
X21700D02*
D03*
X12250Y15150D02*
D03*
X3700Y4100D02*
D03*
Y5100D02*
D03*
X700Y4100D02*
D03*
X12250Y9150D02*
D03*
Y10150D02*
D03*
Y11150D02*
D03*
Y12150D02*
D03*
Y13150D02*
D03*
Y14150D02*
D03*
D75*
X20700Y3800D02*
D03*
X700Y5100D02*
D03*
D76*
X10250Y12150D02*
D03*
X5700Y17100D02*
D03*
X28000Y17350D02*
D03*
D77*
X32750Y16243D02*
D03*
X32750Y13400D02*
D03*
D78*
X12250Y8150D02*
D03*
D79*
X5750Y1250D02*
D03*
X31750Y2500D02*
D03*
Y19000D02*
D03*
X5750Y20250D02*
D03*
D80*
X29850Y15400D02*
D03*
X8500Y5400D02*
D03*
X9550Y6200D02*
D03*
X27750Y13350D02*
D03*
X24750Y14150D02*
D03*
X5800Y4150D02*
D03*
X23800Y15600D02*
D03*
X11150Y13800D02*
D03*
X28900Y11950D02*
D03*
X31850Y12250D02*
D03*
D81*
X13396Y3807D02*
D03*
D82*
X16750Y9650D02*
D03*
Y14650D02*
D03*
M02*
