G04*
G04 #@! TF.GenerationSoftware,Altium Limited,Altium Designer,20.1.14 (287)*
G04*
G04 Layer_Color=8388736*
%FSLAX24Y24*%
%MOIN*%
G70*
G04*
G04 #@! TF.SameCoordinates,9A1B4EAE-D6D5-4477-8753-CECB3CDB6822*
G04*
G04*
G04 #@! TF.FilePolarity,Negative*
G04*
G01*
G75*
%ADD35R,0.0160X0.0540*%
%ADD36R,0.0540X0.0160*%
%ADD37R,0.0120X0.0240*%
%ADD38R,0.0394X0.1027*%
%ADD39R,0.0827X0.0227*%
%ADD40R,0.0906X0.1575*%
%ADD41R,0.0100X0.0300*%
G04:AMPARAMS|DCode=42|XSize=28mil|YSize=36mil|CornerRadius=3.8mil|HoleSize=0mil|Usage=FLASHONLY|Rotation=180.000|XOffset=0mil|YOffset=0mil|HoleType=Round|Shape=RoundedRectangle|*
%AMROUNDEDRECTD42*
21,1,0.0280,0.0284,0,0,180.0*
21,1,0.0204,0.0360,0,0,180.0*
1,1,0.0076,-0.0102,0.0142*
1,1,0.0076,0.0102,0.0142*
1,1,0.0076,0.0102,-0.0142*
1,1,0.0076,-0.0102,-0.0142*
%
%ADD42ROUNDEDRECTD42*%
G04:AMPARAMS|DCode=43|XSize=28mil|YSize=36mil|CornerRadius=3.8mil|HoleSize=0mil|Usage=FLASHONLY|Rotation=270.000|XOffset=0mil|YOffset=0mil|HoleType=Round|Shape=RoundedRectangle|*
%AMROUNDEDRECTD43*
21,1,0.0280,0.0284,0,0,270.0*
21,1,0.0204,0.0360,0,0,270.0*
1,1,0.0076,-0.0142,-0.0102*
1,1,0.0076,-0.0142,0.0102*
1,1,0.0076,0.0142,0.0102*
1,1,0.0076,0.0142,-0.0102*
%
%ADD43ROUNDEDRECTD43*%
G04:AMPARAMS|DCode=44|XSize=51.2mil|YSize=63mil|CornerRadius=9.7mil|HoleSize=0mil|Usage=FLASHONLY|Rotation=270.000|XOffset=0mil|YOffset=0mil|HoleType=Round|Shape=RoundedRectangle|*
%AMROUNDEDRECTD44*
21,1,0.0512,0.0435,0,0,270.0*
21,1,0.0317,0.0630,0,0,270.0*
1,1,0.0195,-0.0218,-0.0158*
1,1,0.0195,-0.0218,0.0158*
1,1,0.0195,0.0218,0.0158*
1,1,0.0195,0.0218,-0.0158*
%
%ADD44ROUNDEDRECTD44*%
G04:AMPARAMS|DCode=45|XSize=30.3mil|YSize=30.3mil|CornerRadius=6.6mil|HoleSize=0mil|Usage=FLASHONLY|Rotation=180.000|XOffset=0mil|YOffset=0mil|HoleType=Round|Shape=RoundedRectangle|*
%AMROUNDEDRECTD45*
21,1,0.0303,0.0171,0,0,180.0*
21,1,0.0171,0.0303,0,0,180.0*
1,1,0.0132,-0.0085,0.0085*
1,1,0.0132,0.0085,0.0085*
1,1,0.0132,0.0085,-0.0085*
1,1,0.0132,-0.0085,-0.0085*
%
%ADD45ROUNDEDRECTD45*%
G04:AMPARAMS|DCode=46|XSize=30.3mil|YSize=30.3mil|CornerRadius=6.6mil|HoleSize=0mil|Usage=FLASHONLY|Rotation=90.000|XOffset=0mil|YOffset=0mil|HoleType=Round|Shape=RoundedRectangle|*
%AMROUNDEDRECTD46*
21,1,0.0303,0.0171,0,0,90.0*
21,1,0.0171,0.0303,0,0,90.0*
1,1,0.0132,0.0085,0.0085*
1,1,0.0132,0.0085,-0.0085*
1,1,0.0132,-0.0085,-0.0085*
1,1,0.0132,-0.0085,0.0085*
%
%ADD46ROUNDEDRECTD46*%
G04:AMPARAMS|DCode=47|XSize=51.2mil|YSize=63mil|CornerRadius=9.7mil|HoleSize=0mil|Usage=FLASHONLY|Rotation=0.000|XOffset=0mil|YOffset=0mil|HoleType=Round|Shape=RoundedRectangle|*
%AMROUNDEDRECTD47*
21,1,0.0512,0.0435,0,0,0.0*
21,1,0.0317,0.0630,0,0,0.0*
1,1,0.0195,0.0158,-0.0218*
1,1,0.0195,-0.0158,-0.0218*
1,1,0.0195,-0.0158,0.0218*
1,1,0.0195,0.0158,0.0218*
%
%ADD47ROUNDEDRECTD47*%
G04:AMPARAMS|DCode=48|XSize=15mil|YSize=15mil|CornerRadius=2.7mil|HoleSize=0mil|Usage=FLASHONLY|Rotation=0.000|XOffset=0mil|YOffset=0mil|HoleType=Round|Shape=RoundedRectangle|*
%AMROUNDEDRECTD48*
21,1,0.0150,0.0096,0,0,0.0*
21,1,0.0096,0.0150,0,0,0.0*
1,1,0.0054,0.0048,-0.0048*
1,1,0.0054,-0.0048,-0.0048*
1,1,0.0054,-0.0048,0.0048*
1,1,0.0054,0.0048,0.0048*
%
%ADD48ROUNDEDRECTD48*%
%ADD49R,0.0839X0.0279*%
%ADD50C,0.0190*%
G04:AMPARAMS|DCode=51|XSize=19.7mil|YSize=55.2mil|CornerRadius=4.4mil|HoleSize=0mil|Usage=FLASHONLY|Rotation=270.000|XOffset=0mil|YOffset=0mil|HoleType=Round|Shape=RoundedRectangle|*
%AMROUNDEDRECTD51*
21,1,0.0197,0.0465,0,0,270.0*
21,1,0.0110,0.0552,0,0,270.0*
1,1,0.0087,-0.0232,-0.0055*
1,1,0.0087,-0.0232,0.0055*
1,1,0.0087,0.0232,0.0055*
1,1,0.0087,0.0232,-0.0055*
%
%ADD51ROUNDEDRECTD51*%
%ADD52R,0.0961X0.0961*%
G04:AMPARAMS|DCode=53|XSize=66.9mil|YSize=29.5mil|CornerRadius=6.5mil|HoleSize=0mil|Usage=FLASHONLY|Rotation=0.000|XOffset=0mil|YOffset=0mil|HoleType=Round|Shape=RoundedRectangle|*
%AMROUNDEDRECTD53*
21,1,0.0669,0.0165,0,0,0.0*
21,1,0.0539,0.0295,0,0,0.0*
1,1,0.0130,0.0270,-0.0083*
1,1,0.0130,-0.0270,-0.0083*
1,1,0.0130,-0.0270,0.0083*
1,1,0.0130,0.0270,0.0083*
%
%ADD53ROUNDEDRECTD53*%
G04:AMPARAMS|DCode=54|XSize=30.9mil|YSize=30.9mil|CornerRadius=6.7mil|HoleSize=0mil|Usage=FLASHONLY|Rotation=90.000|XOffset=0mil|YOffset=0mil|HoleType=Round|Shape=RoundedRectangle|*
%AMROUNDEDRECTD54*
21,1,0.0309,0.0175,0,0,90.0*
21,1,0.0175,0.0309,0,0,90.0*
1,1,0.0134,0.0088,0.0088*
1,1,0.0134,0.0088,-0.0088*
1,1,0.0134,-0.0088,-0.0088*
1,1,0.0134,-0.0088,0.0088*
%
%ADD54ROUNDEDRECTD54*%
%ADD55C,0.0659*%
%ADD56C,0.0650*%
%ADD57R,0.0650X0.0650*%
%ADD58C,0.0759*%
%ADD59O,0.0673X0.0476*%
%ADD60R,0.0650X0.0650*%
%ADD61C,0.1309*%
%ADD62C,0.0559*%
%ADD63C,0.0359*%
%ADD64C,0.1259*%
G36*
X25100Y15650D02*
X24850Y15500D01*
Y15800D01*
X25100Y15650D01*
D02*
G37*
D35*
X9550Y5400D02*
D03*
X8300Y2700D02*
D03*
X4550Y6100D02*
D03*
X4990Y3850D02*
D03*
X8650Y6200D02*
D03*
D36*
X6850Y1100D02*
D03*
X8600Y3900D02*
D03*
X4750Y5100D02*
D03*
D37*
X30550Y14700D02*
D03*
D38*
X31825Y16082D02*
D03*
X31825Y13560D02*
D03*
D39*
X32041Y13960D02*
D03*
X32041Y15682D02*
D03*
D40*
X32652Y14821D02*
D03*
D41*
X25100Y15650D02*
D03*
D42*
X9840Y5400D02*
D03*
X9260D02*
D03*
X8010Y2700D02*
D03*
X8590D02*
D03*
X4260Y6100D02*
D03*
X4840D02*
D03*
X4700Y3850D02*
D03*
X5280D02*
D03*
X8360Y6200D02*
D03*
X8940D02*
D03*
D43*
X6850Y1390D02*
D03*
Y810D02*
D03*
X8600Y4190D02*
D03*
Y3610D02*
D03*
X4750Y5390D02*
D03*
Y4810D02*
D03*
D44*
X11150Y14496D02*
D03*
Y15204D02*
D03*
X28900Y12596D02*
D03*
Y13304D02*
D03*
X25600Y14196D02*
D03*
Y14904D02*
D03*
D45*
X30523Y15400D02*
D03*
X30877D02*
D03*
X32423Y12300D02*
D03*
X32777D02*
D03*
D46*
X30850Y14127D02*
D03*
Y13773D02*
D03*
D47*
X27554Y4900D02*
D03*
X26846D02*
D03*
D48*
X30650Y14700D02*
D03*
X30450D02*
D03*
D49*
X5730Y6150D02*
D03*
Y5650D02*
D03*
Y5150D02*
D03*
Y4650D02*
D03*
X7670D02*
D03*
Y5150D02*
D03*
Y5650D02*
D03*
Y6150D02*
D03*
D50*
X32652Y14821D02*
D03*
D51*
X31813Y14309D02*
D03*
Y14565D02*
D03*
Y14821D02*
D03*
Y15077D02*
D03*
Y15333D02*
D03*
D52*
X27737Y14800D02*
D03*
D53*
X28800Y15550D02*
D03*
X28800Y15050D02*
D03*
X28800Y14550D02*
D03*
X26674Y15550D02*
D03*
Y15050D02*
D03*
Y14550D02*
D03*
Y14050D02*
D03*
X28800Y14050D02*
D03*
D54*
X25450Y15650D02*
D03*
X24550D02*
D03*
D55*
X7750Y750D02*
D03*
X8750D02*
D03*
X9750D02*
D03*
X10750D02*
D03*
X11750D02*
D03*
X12750D02*
D03*
X13750D02*
D03*
X14750D02*
D03*
X15750D02*
D03*
X16750D02*
D03*
X17750D02*
D03*
X18750D02*
D03*
X19750D02*
D03*
X20750D02*
D03*
X21750D02*
D03*
X22750D02*
D03*
X23750D02*
D03*
X24750D02*
D03*
X25750D02*
D03*
X26750D02*
D03*
X27750D02*
D03*
X28750D02*
D03*
X29750D02*
D03*
X7750Y1750D02*
D03*
X8750D02*
D03*
X9750D02*
D03*
X10750D02*
D03*
X11750D02*
D03*
X12750D02*
D03*
X13750D02*
D03*
X14750D02*
D03*
X15750D02*
D03*
X16750D02*
D03*
X17750D02*
D03*
X18750D02*
D03*
X19750D02*
D03*
X20750D02*
D03*
X21750D02*
D03*
X22750D02*
D03*
X23750D02*
D03*
X24750D02*
D03*
X25750D02*
D03*
X26750D02*
D03*
X27750D02*
D03*
X28750D02*
D03*
X29750D02*
D03*
Y20750D02*
D03*
X28750D02*
D03*
X27750D02*
D03*
X26750D02*
D03*
X25750D02*
D03*
X24750D02*
D03*
X23750D02*
D03*
X22750D02*
D03*
X21750D02*
D03*
X20750D02*
D03*
X19750D02*
D03*
X18750D02*
D03*
X17750D02*
D03*
X16750D02*
D03*
X15750D02*
D03*
X14750D02*
D03*
X13750D02*
D03*
X12750D02*
D03*
X11750D02*
D03*
X10750D02*
D03*
X9750D02*
D03*
X8750D02*
D03*
X7750D02*
D03*
X29750Y19750D02*
D03*
X28750D02*
D03*
X27750D02*
D03*
X26750D02*
D03*
X25750D02*
D03*
X24750D02*
D03*
X23750D02*
D03*
X22750D02*
D03*
X21750D02*
D03*
X20750D02*
D03*
X19750D02*
D03*
X18750D02*
D03*
X17750D02*
D03*
X16750D02*
D03*
X15750D02*
D03*
X14750D02*
D03*
X13750D02*
D03*
X12750D02*
D03*
X11750D02*
D03*
X10750D02*
D03*
X9750D02*
D03*
X8750D02*
D03*
X7750D02*
D03*
D56*
X27700Y3800D02*
D03*
X26700D02*
D03*
X25700D02*
D03*
X24700D02*
D03*
X23700D02*
D03*
X22700D02*
D03*
X21700D02*
D03*
X12250Y15150D02*
D03*
X3700Y4100D02*
D03*
Y5100D02*
D03*
X700Y4100D02*
D03*
X12250Y9150D02*
D03*
Y10150D02*
D03*
Y11150D02*
D03*
Y12150D02*
D03*
Y13150D02*
D03*
Y14150D02*
D03*
D57*
X20700Y3800D02*
D03*
X700Y5100D02*
D03*
D58*
X10250Y12150D02*
D03*
X5700Y17100D02*
D03*
X28000Y17350D02*
D03*
D59*
X32750Y16243D02*
D03*
X32750Y13400D02*
D03*
D60*
X12250Y8150D02*
D03*
D61*
X5750Y1250D02*
D03*
X31750Y2500D02*
D03*
Y19000D02*
D03*
X5750Y20250D02*
D03*
D62*
X29850Y15400D02*
D03*
X8500Y5400D02*
D03*
X9550Y6200D02*
D03*
X27750Y13350D02*
D03*
X24750Y14150D02*
D03*
X5800Y4150D02*
D03*
X23800Y15600D02*
D03*
X11150Y13800D02*
D03*
X28900Y11950D02*
D03*
X31850Y12250D02*
D03*
D63*
X13396Y3807D02*
D03*
D64*
X16750Y9650D02*
D03*
Y14650D02*
D03*
M02*
