G04*
G04 #@! TF.GenerationSoftware,Altium Limited,Altium Designer,20.1.14 (287)*
G04*
G04 Layer_Color=65535*
%FSLAX24Y24*%
%MOIN*%
G70*
G04*
G04 #@! TF.SameCoordinates,9A1B4EAE-D6D5-4477-8753-CECB3CDB6822*
G04*
G04*
G04 #@! TF.FilePolarity,Positive*
G04*
G01*
G75*
%ADD10C,0.0079*%
%ADD11C,0.0060*%
%ADD12C,0.0236*%
%ADD13C,0.0098*%
%ADD14C,0.0100*%
%ADD15C,0.0080*%
%ADD16C,0.0200*%
G36*
X27107Y15765D02*
X27702Y15765D01*
X27107Y15170D01*
X27107Y15765D01*
D02*
G37*
D10*
X10750Y12150D02*
G03*
X10750Y12150I-500J0D01*
G01*
X1950Y5604D02*
G03*
X2450Y5604I250J0D01*
G01*
X6259Y17100D02*
G03*
X6259Y17100I-559J0D01*
G01*
X28559Y17350D02*
G03*
X28559Y17350I-559J0D01*
G01*
X20200Y4300D02*
X28200D01*
X20200Y3300D02*
Y4300D01*
Y3300D02*
X28200D01*
Y4300D01*
X1157Y3596D02*
X3243D01*
X2450Y5604D02*
X3243D01*
X1157D02*
X1950D01*
X3243Y3596D02*
Y5604D01*
X1157Y3596D02*
Y5604D01*
X11750Y15650D02*
X12750D01*
Y7650D02*
Y15650D01*
X11750Y7650D02*
X12750D01*
X11750D02*
Y15650D01*
X31125Y14913D02*
Y15063D01*
X30990Y15078D01*
X31005Y15063D01*
X31020Y15018D01*
Y14973D01*
X31005Y14928D01*
X30975Y14898D01*
X30930Y14883D01*
X30900D01*
X30855Y14898D01*
X30825Y14928D01*
X30810Y14973D01*
Y15018D01*
X30825Y15063D01*
X30840Y15078D01*
X30870Y15093D01*
X31095Y14443D02*
X31110Y14413D01*
X31155Y14368D01*
X30840D01*
D11*
X6580Y6380D02*
G03*
X6820Y6380I120J0D01*
G01*
X6160Y4420D02*
X7240D01*
X6820Y6380D02*
X7240D01*
X6580D02*
X6820D01*
X6160D02*
X6580D01*
D12*
X1669Y5210D02*
G03*
X1669Y5210I-118J0D01*
G01*
D13*
X749Y5612D02*
G03*
X749Y5612I-49J0D01*
G01*
D14*
X12800Y8450D02*
X17550D01*
Y15650D01*
X12800D02*
X17550D01*
X9150Y18959D02*
X8750D01*
Y18360D01*
X9150D01*
X8750Y18660D02*
X8950D01*
X9350Y18360D02*
Y18760D01*
X9650D01*
X9750Y18660D01*
Y18360D01*
X9950Y18760D02*
X10150Y18360D01*
X10349Y18760D01*
X10549Y18360D02*
X10749D01*
X10649D01*
Y18760D01*
X10549D01*
X11049D02*
Y18360D01*
Y18560D01*
X11149Y18660D01*
X11249Y18760D01*
X11349D01*
X11749Y18360D02*
X11949D01*
X12049Y18460D01*
Y18660D01*
X11949Y18760D01*
X11749D01*
X11649Y18660D01*
Y18460D01*
X11749Y18360D01*
X12649Y18859D02*
X12549Y18959D01*
X12349D01*
X12249Y18859D01*
Y18460D01*
X12349Y18360D01*
X12549D01*
X12649Y18460D01*
X12949Y18760D02*
X13149D01*
X13249Y18660D01*
Y18360D01*
X12949D01*
X12849Y18460D01*
X12949Y18560D01*
X13249D01*
X13448Y18160D02*
Y18760D01*
X13748D01*
X13848Y18660D01*
Y18460D01*
X13748Y18360D01*
X13448D01*
X14348D02*
X14148D01*
X14048Y18460D01*
Y18660D01*
X14148Y18760D01*
X14348D01*
X14448Y18660D01*
Y18560D01*
X14048D01*
X8750Y17200D02*
Y17800D01*
X9050D01*
X9150Y17700D01*
Y17500D01*
X9050Y17400D01*
X8750D01*
X8950D02*
X9150Y17200D01*
X9650D02*
X9450D01*
X9350Y17300D01*
Y17500D01*
X9450Y17600D01*
X9650D01*
X9750Y17500D01*
Y17400D01*
X9350D01*
X9950Y17600D02*
X10150Y17200D01*
X10349Y17600D01*
X10549Y17200D02*
Y17300D01*
X10649D01*
Y17200D01*
X10549D01*
X11649D02*
Y17600D01*
X11849Y17800D01*
X12049Y17600D01*
Y17200D01*
Y17500D01*
X11649D01*
X13049Y17200D02*
X12849Y17400D01*
Y17600D01*
X13049Y17800D01*
X13748Y17700D02*
X13648Y17800D01*
X13448D01*
X13349Y17700D01*
Y17600D01*
X13448Y17500D01*
X13648D01*
X13748Y17400D01*
Y17300D01*
X13648Y17200D01*
X13448D01*
X13349Y17300D01*
X14248Y17200D02*
X14048D01*
X13948Y17300D01*
Y17500D01*
X14048Y17600D01*
X14248D01*
X14348Y17500D01*
Y17400D01*
X13948D01*
X14548Y17000D02*
Y17600D01*
X14848D01*
X14948Y17500D01*
Y17300D01*
X14848Y17200D01*
X14548D01*
X15148D02*
Y17300D01*
X15248D01*
Y17200D01*
X15148D01*
X16647D02*
X16248D01*
X16647Y17600D01*
Y17700D01*
X16547Y17800D01*
X16348D01*
X16248Y17700D01*
X16847D02*
X16947Y17800D01*
X17147D01*
X17247Y17700D01*
Y17300D01*
X17147Y17200D01*
X16947D01*
X16847Y17300D01*
Y17700D01*
X17847Y17200D02*
X17447D01*
X17847Y17600D01*
Y17700D01*
X17747Y17800D01*
X17547D01*
X17447Y17700D01*
X18047D02*
X18147Y17800D01*
X18347D01*
X18447Y17700D01*
Y17300D01*
X18347Y17200D01*
X18147D01*
X18047Y17300D01*
Y17700D01*
X18647Y17200D02*
X18847Y17400D01*
Y17600D01*
X18647Y17800D01*
X31100Y20000D02*
X30500D01*
Y20300D01*
X30600Y20400D01*
X30800D01*
X30900Y20300D01*
Y20000D01*
X30600Y20600D02*
X30500Y20700D01*
Y20900D01*
X30600Y21000D01*
X30700D01*
X30800Y20900D01*
X30900Y21000D01*
X31000D01*
X31100Y20900D01*
Y20700D01*
X31000Y20600D01*
X30900D01*
X30800Y20700D01*
X30700Y20600D01*
X30600D01*
X30800Y20700D02*
Y20900D01*
X31100Y400D02*
X30500D01*
Y700D01*
X30600Y800D01*
X30800D01*
X30900Y700D01*
Y400D01*
X31000Y1000D02*
X31100Y1100D01*
Y1300D01*
X31000Y1400D01*
X30600D01*
X30500Y1300D01*
Y1100D01*
X30600Y1000D01*
X30700D01*
X30800Y1100D01*
Y1400D01*
X20650Y5750D02*
Y6350D01*
X20950D01*
X21050Y6250D01*
Y6050D01*
X20950Y5950D01*
X20650D01*
X21250Y5750D02*
Y6350D01*
X21450Y6150D01*
X21650Y6350D01*
Y5750D01*
X22249D02*
X21850D01*
X22249Y6150D01*
Y6250D01*
X22150Y6350D01*
X21950D01*
X21850Y6250D01*
X22449Y5750D02*
Y5850D01*
X22549D01*
Y5750D01*
X22449D01*
X23349Y6350D02*
X22949D01*
Y6050D01*
X23149Y6150D01*
X23249D01*
X23349Y6050D01*
Y5850D01*
X23249Y5750D01*
X23049D01*
X22949Y5850D01*
X24549Y6250D02*
X24449Y6350D01*
X24249D01*
X24149Y6250D01*
Y6150D01*
X24249Y6050D01*
X24449D01*
X24549Y5950D01*
Y5850D01*
X24449Y5750D01*
X24249D01*
X24149Y5850D01*
X25149Y6350D02*
X24749D01*
Y5750D01*
X25149D01*
X24749Y6050D02*
X24949D01*
X25348Y5750D02*
Y6350D01*
X25748Y5750D01*
Y6350D01*
X26348Y6250D02*
X26248Y6350D01*
X26048D01*
X25948Y6250D01*
Y6150D01*
X26048Y6050D01*
X26248D01*
X26348Y5950D01*
Y5850D01*
X26248Y5750D01*
X26048D01*
X25948Y5850D01*
X26848Y6350D02*
X26648D01*
X26548Y6250D01*
Y5850D01*
X26648Y5750D01*
X26848D01*
X26948Y5850D01*
Y6250D01*
X26848Y6350D01*
X27148Y5750D02*
Y6350D01*
X27448D01*
X27548Y6250D01*
Y6050D01*
X27448Y5950D01*
X27148D01*
X27348D02*
X27548Y5750D01*
X13650Y12300D02*
Y11700D01*
X13950D01*
X14050Y11800D01*
Y11900D01*
X13950Y12000D01*
X13650D01*
X13950D01*
X14050Y12100D01*
Y12200D01*
X13950Y12300D01*
X13650D01*
X14250Y11700D02*
Y12300D01*
X14450Y12100D01*
X14650Y12300D01*
Y11700D01*
X15249Y12300D02*
X14850D01*
Y11700D01*
X15249D01*
X14850Y12000D02*
X15050D01*
X15849Y12300D02*
X15649Y12200D01*
X15449Y12000D01*
Y11800D01*
X15549Y11700D01*
X15749D01*
X15849Y11800D01*
Y11900D01*
X15749Y12000D01*
X15449D01*
X16049Y12200D02*
X16149Y12300D01*
X16349D01*
X16449Y12200D01*
Y12100D01*
X16349Y12000D01*
X16449Y11900D01*
Y11800D01*
X16349Y11700D01*
X16149D01*
X16049Y11800D01*
Y11900D01*
X16149Y12000D01*
X16049Y12100D01*
Y12200D01*
X16149Y12000D02*
X16349D01*
X16649Y12200D02*
X16749Y12300D01*
X16949D01*
X17049Y12200D01*
Y11800D01*
X16949Y11700D01*
X16749D01*
X16649Y11800D01*
Y12200D01*
X26340Y16950D02*
Y16450D01*
X26440Y16350D01*
X26640D01*
X26740Y16450D01*
Y16950D01*
X27340Y16350D02*
X26940D01*
X27340Y16750D01*
Y16850D01*
X27240Y16950D01*
X27040D01*
X26940Y16850D01*
X5415Y7305D02*
Y6805D01*
X5515Y6705D01*
X5715D01*
X5815Y6805D01*
Y7305D01*
X6015Y6705D02*
X6215D01*
X6115D01*
Y7305D01*
X6015Y7205D01*
X27485Y18865D02*
X27885D01*
X27685D01*
Y18265D01*
X28085D02*
Y18865D01*
X28385D01*
X28485Y18765D01*
Y18565D01*
X28385Y18465D01*
X28085D01*
X29084Y18265D02*
X28685D01*
X29084Y18665D01*
Y18765D01*
X28985Y18865D01*
X28785D01*
X28685Y18765D01*
X5185Y18615D02*
X5585D01*
X5385D01*
Y18015D01*
X5785D02*
Y18615D01*
X6085D01*
X6185Y18515D01*
Y18315D01*
X6085Y18215D01*
X5785D01*
X6385Y18015D02*
X6585D01*
X6485D01*
Y18615D01*
X6385Y18515D01*
X880Y6510D02*
X780Y6610D01*
X580D01*
X480Y6510D01*
Y6410D01*
X580Y6310D01*
X780D01*
X880Y6210D01*
Y6110D01*
X780Y6010D01*
X580D01*
X480Y6110D01*
X1080Y6010D02*
X1280D01*
X1180D01*
Y6610D01*
X1080Y6510D01*
X4000Y6550D02*
Y7150D01*
X4300D01*
X4400Y7050D01*
Y6850D01*
X4300Y6750D01*
X4000D01*
X4200D02*
X4400Y6550D01*
X5000Y7150D02*
X4600D01*
Y6850D01*
X4800Y6950D01*
X4900D01*
X5000Y6850D01*
Y6650D01*
X4900Y6550D01*
X4700D01*
X4600Y6650D01*
X4590Y2800D02*
Y3400D01*
X4890D01*
X4990Y3300D01*
Y3100D01*
X4890Y3000D01*
X4590D01*
X4790D02*
X4990Y2800D01*
X5490D02*
Y3400D01*
X5190Y3100D01*
X5590D01*
X4000Y7400D02*
Y8000D01*
X4300D01*
X4400Y7900D01*
Y7700D01*
X4300Y7600D01*
X4000D01*
X4200D02*
X4400Y7400D01*
X4600Y7900D02*
X4700Y8000D01*
X4900D01*
X5000Y7900D01*
Y7800D01*
X4900Y7700D01*
X4800D01*
X4900D01*
X5000Y7600D01*
Y7500D01*
X4900Y7400D01*
X4700D01*
X4600Y7500D01*
X7150Y3450D02*
Y4050D01*
X7450D01*
X7550Y3950D01*
Y3750D01*
X7450Y3650D01*
X7150D01*
X7350D02*
X7550Y3450D01*
X8150D02*
X7750D01*
X8150Y3850D01*
Y3950D01*
X8050Y4050D01*
X7850D01*
X7750Y3950D01*
X10300Y5450D02*
Y6050D01*
X10600D01*
X10700Y5950D01*
Y5750D01*
X10600Y5650D01*
X10300D01*
X10500D02*
X10700Y5450D01*
X10900D02*
X11100D01*
X11000D01*
Y6050D01*
X10900Y5950D01*
X12215Y16585D02*
X12015D01*
X12115D01*
Y16085D01*
X12015Y15985D01*
X11915D01*
X11815Y16085D01*
X12415Y16485D02*
X12515Y16585D01*
X12715D01*
X12815Y16485D01*
Y16385D01*
X12715Y16285D01*
X12615D01*
X12715D01*
X12815Y16185D01*
Y16085D01*
X12715Y15985D01*
X12515D01*
X12415Y16085D01*
X19000Y4950D02*
X18800D01*
X18900D01*
Y4450D01*
X18800Y4350D01*
X18700D01*
X18600Y4450D01*
X19600Y4350D02*
X19200D01*
X19600Y4750D01*
Y4850D01*
X19500Y4950D01*
X19300D01*
X19200Y4850D01*
X31232Y17886D02*
X31032D01*
X31132D01*
Y17386D01*
X31032Y17286D01*
X30932D01*
X30832Y17386D01*
X31432Y17286D02*
X31632D01*
X31532D01*
Y17886D01*
X31432Y17786D01*
X32400Y11850D02*
X32000D01*
Y11550D01*
X32200D01*
X32000D01*
Y11250D01*
X32600Y11750D02*
X32700Y11850D01*
X32900D01*
X33000Y11750D01*
Y11650D01*
X32900Y11550D01*
X32800D01*
X32900D01*
X33000Y11450D01*
Y11350D01*
X32900Y11250D01*
X32700D01*
X32600Y11350D01*
X30350Y13373D02*
X29950D01*
Y13073D01*
X30150D01*
X29950D01*
Y12773D01*
X30950D02*
X30550D01*
X30950Y13173D01*
Y13273D01*
X30850Y13373D01*
X30650D01*
X30550Y13273D01*
X30550Y16500D02*
X30150D01*
Y16200D01*
X30350D01*
X30150D01*
Y15900D01*
X30750D02*
X30950D01*
X30850D01*
Y16500D01*
X30750Y16400D01*
X24390Y16900D02*
Y16300D01*
X24690D01*
X24790Y16400D01*
Y16800D01*
X24690Y16900D01*
X24390D01*
X25390Y16300D02*
X24990D01*
X25390Y16700D01*
Y16800D01*
X25290Y16900D01*
X25090D01*
X24990Y16800D01*
X29400Y15000D02*
Y14400D01*
X29700D01*
X29800Y14500D01*
Y14900D01*
X29700Y15000D01*
X29400D01*
X30000Y14400D02*
X30200D01*
X30100D01*
Y15000D01*
X30000Y14900D01*
X9950Y15300D02*
X9850Y15400D01*
X9650D01*
X9550Y15300D01*
Y14900D01*
X9650Y14800D01*
X9850D01*
X9950Y14900D01*
X10150Y15400D02*
X10550D01*
Y15300D01*
X10150Y14900D01*
Y14800D01*
X28700Y5200D02*
X28800Y5300D01*
Y5500D01*
X28700Y5600D01*
X28300D01*
X28200Y5500D01*
Y5300D01*
X28300Y5200D01*
X28800Y4600D02*
X28700Y4800D01*
X28500Y5000D01*
X28300D01*
X28200Y4900D01*
Y4700D01*
X28300Y4600D01*
X28400D01*
X28500Y4700D01*
Y5000D01*
X23650Y14300D02*
X23550Y14400D01*
X23350D01*
X23250Y14300D01*
Y13900D01*
X23350Y13800D01*
X23550D01*
X23650Y13900D01*
X24250Y14400D02*
X23850D01*
Y14100D01*
X24050Y14200D01*
X24150D01*
X24250Y14100D01*
Y13900D01*
X24150Y13800D01*
X23950D01*
X23850Y13900D01*
X29700Y12050D02*
X29600Y12150D01*
X29400D01*
X29300Y12050D01*
Y11650D01*
X29400Y11550D01*
X29600D01*
X29700Y11650D01*
X30200Y11550D02*
Y12150D01*
X29900Y11850D01*
X30300D01*
X9350Y2850D02*
X9250Y2950D01*
X9050D01*
X8950Y2850D01*
Y2450D01*
X9050Y2350D01*
X9250D01*
X9350Y2450D01*
X9550Y2850D02*
X9650Y2950D01*
X9850D01*
X9950Y2850D01*
Y2750D01*
X9850Y2650D01*
X9750D01*
X9850D01*
X9950Y2550D01*
Y2450D01*
X9850Y2350D01*
X9650D01*
X9550Y2450D01*
X6400Y2700D02*
X6300Y2800D01*
X6100D01*
X6000Y2700D01*
Y2300D01*
X6100Y2200D01*
X6300D01*
X6400Y2300D01*
X7000Y2200D02*
X6600D01*
X7000Y2600D01*
Y2700D01*
X6900Y2800D01*
X6700D01*
X6600Y2700D01*
X8635Y7325D02*
X8535Y7425D01*
X8335D01*
X8235Y7325D01*
Y6925D01*
X8335Y6825D01*
X8535D01*
X8635Y6925D01*
X8835Y6825D02*
X9035D01*
X8935D01*
Y7425D01*
X8835Y7325D01*
X8950Y13750D02*
X9350D01*
X9150D01*
Y13150D01*
X9550D02*
Y13750D01*
X9850D01*
X9950Y13650D01*
Y13450D01*
X9850Y13350D01*
X9550D01*
X10150Y13650D02*
X10250Y13750D01*
X10450D01*
X10550Y13650D01*
Y13550D01*
X10450Y13450D01*
X10350D01*
X10450D01*
X10550Y13350D01*
Y13250D01*
X10450Y13150D01*
X10250D01*
X10150Y13250D01*
D15*
X31357Y12921D02*
X33757D01*
X31357Y16721D02*
X31357Y12921D01*
X31357Y16721D02*
X33757Y16721D01*
Y12921D02*
Y16721D01*
X28367Y13836D02*
X28367Y15765D01*
X27107Y13836D02*
X28367Y13836D01*
X27107Y13836D02*
Y15765D01*
X28367D01*
D16*
X26637Y15850D02*
Y15853D01*
X26640D01*
Y15850D01*
X26637D01*
M02*
