M48
;Layer_Color=9474304
;FILE_FORMAT=2:4
INCH,LZ
;TYPE=PLATED
T1F00S00C0.0150
T3F00S00C0.0280
T4F00S00C0.0354
T5F00S00C0.0400
T6F00S00C0.0900
;TYPE=NON_PLATED
T7F00S00C0.1250
%
T01
X013396Y003807
T03
X0058Y00415
X0085Y0054
X00955Y0062
X01115Y0138
X02475Y01415
X0238Y0156
X02775Y01335
X0289Y01195
X03185Y01225
X02985Y0154
T04
X0207Y0038
X0217
X0227
X0237
X0247
X0257
X0267
X0277
X0037Y0041
Y0051
X0007
Y0041
X01225Y00815
Y00915
Y01015
Y01115
Y01215
Y01315
Y01415
Y01515
T05
X01975Y00075
X02075
X02175
X02275
X02375
X02475
X02575
X02675
Y00175
X02575
X02475
X02375
X02275
X02175
X02075
X01975
X02775
X02875
X02975
Y00075
X02875
X02775
X01875
X01775
X01675
X01575
Y00175
X01475
X01375
Y00075
X01475
X01275
X01175
X01075
X00975
X00875
X00775
Y00175
X00875
X00975
X01075
X01175
X01275
X01675
X01775
X01875
X01875Y01975
X01875Y02075
X01775
X01675
X01575
X01475
X01375
X01275
X01175
X01075
X00975
X00875
X00775
Y01975
X00875
X00975
X01075
X01175
X01275
X01375
X01475
X01575
X01675
X01775
X0057Y0171
X01025Y01215
X01975Y01975
X01975Y02075
X02075
X02175
X02275
X02375
X02475
X02575
X02675
X02775
X02875
X02975
Y01975
X02875
X02775
X02675
X02575
X02475
X02375
X02275
X02175
X02075
X028Y01735
T06
X01675Y00965
Y01465
T07
X03175Y0025
X00575Y00125
Y02025
X03175Y019
M30
